<svg width="20" height="21" viewBox="0 0 20 21" fill="none" xmlns="http://www.w3.org/2000/svg">
<g clip-path="url(#clip0_323_1374)">
<path d="M17.5425 8.2H17.4625C17.3452 8.19896 17.231 8.16263 17.1347 8.09574C17.0384 8.02886 16.9644 7.93451 16.9225 7.825C16.8784 7.71925 16.8667 7.60276 16.8889 7.49035C16.9112 7.37794 16.9664 7.27469 17.0475 7.19375L17.1044 7.13687C17.4472 6.79271 17.6397 6.32672 17.6397 5.84093C17.6397 5.35515 17.4472 4.88916 17.1044 4.545L16.16 3.60125C15.8161 3.25814 15.3502 3.06544 14.8644 3.06544C14.3786 3.06544 13.9126 3.25814 13.5687 3.60125L13.5119 3.65812C13.4281 3.73882 13.3226 3.7933 13.2082 3.81488C13.0939 3.83645 12.9758 3.82419 12.8684 3.77959C12.7609 3.735 12.6688 3.66001 12.6034 3.56382C12.538 3.46763 12.502 3.35444 12.5 3.23812V3.1575C12.4995 2.67164 12.3063 2.20582 11.9627 1.86227C11.6192 1.51872 11.1534 1.32549 10.6675 1.325H9.3325C8.84664 1.32549 8.38083 1.51872 8.03728 1.86227C7.69372 2.20582 7.5005 2.67164 7.5 3.1575V3.23812C7.49695 3.3536 7.4605 3.46572 7.39504 3.56091C7.32959 3.6561 7.23794 3.73027 7.1312 3.77445C7.02446 3.81863 6.90721 3.83092 6.79363 3.80983C6.68005 3.78874 6.57502 3.73517 6.49125 3.65562L6.4375 3.59875C6.09361 3.25564 5.62766 3.06294 5.14188 3.06294C4.65609 3.06294 4.19014 3.25564 3.84625 3.59875L2.89875 4.5425C2.55591 4.88666 2.36341 5.35265 2.36341 5.83843C2.36341 6.32422 2.55591 6.79021 2.89875 7.13437L2.95563 7.19125C3.03753 7.27505 3.09236 7.38154 3.11298 7.49689C3.13359 7.61225 3.11906 7.73113 3.07125 7.83812C3.02836 7.94468 2.95467 8.03604 2.85959 8.1005C2.76451 8.16496 2.65237 8.1996 2.5375 8.2H2.4575C1.97164 8.20049 1.50583 8.39372 1.16228 8.73727C0.818722 9.08082 0.625496 9.54664 0.625 10.0325V11.3675C0.625496 11.8534 0.818722 12.3192 1.16228 12.6627C1.50583 13.0063 1.97164 13.1995 2.4575 13.2H2.5375C2.65476 13.201 2.76899 13.2374 2.86531 13.3042C2.96163 13.3711 3.03557 13.4655 3.0775 13.575C3.12164 13.6807 3.13333 13.7972 3.11107 13.9096C3.08881 14.0221 3.03361 14.1253 2.9525 14.2062L2.89562 14.2631C2.55278 14.6073 2.36028 15.0733 2.36028 15.5591C2.36028 16.0448 2.55278 16.5108 2.89562 16.855L3.83938 17.7981C4.18321 18.1416 4.64932 18.3345 5.13531 18.3345C5.6213 18.3345 6.08741 18.1416 6.43125 17.7981L6.48812 17.7412C6.57197 17.6594 6.67846 17.6046 6.79379 17.584C6.90913 17.5634 7.028 17.5779 7.135 17.6256C7.24156 17.6683 7.33294 17.7419 7.39741 17.8369C7.46189 17.9319 7.49652 18.0439 7.49687 18.1587V18.2394C7.49671 18.4805 7.54408 18.7192 7.63627 18.942C7.72846 19.1648 7.86366 19.3672 8.03415 19.5377C8.20464 19.7082 8.40706 19.8434 8.62984 19.9356C8.85262 20.0278 9.0914 20.0752 9.3325 20.075H10.6675C11.1534 20.0745 11.6192 19.8813 11.9627 19.5377C12.3063 19.1942 12.4995 18.7284 12.5 18.2425V18.1619C12.503 18.0464 12.5395 17.9343 12.605 17.8391C12.6704 17.7439 12.7621 17.6697 12.8688 17.6255C12.9755 17.5814 13.0928 17.5691 13.2064 17.5902C13.32 17.6113 13.425 17.6648 13.5087 17.7444L13.5656 17.8012C13.9095 18.1444 14.3755 18.3371 14.8612 18.3371C15.347 18.3371 15.813 18.1444 16.1569 17.8012L17.1012 16.8581C17.4441 16.514 17.6366 16.048 17.6366 15.5622C17.6366 15.0764 17.4441 14.6104 17.1012 14.2662L17.0444 14.2094C16.9625 14.1256 16.9076 14.0191 16.887 13.9037C16.8664 13.7884 16.8809 13.6695 16.9288 13.5625C16.9715 13.4558 17.0452 13.3643 17.1403 13.2998C17.2354 13.2352 17.3476 13.2004 17.4625 13.2H17.5425C18.0284 13.1995 18.4942 13.0063 18.8377 12.6627C19.1813 12.3192 19.3745 11.8534 19.375 11.3675V10.0325C19.3745 9.54664 19.1813 9.08082 18.8377 8.73727C18.4942 8.39372 18.0284 8.20049 17.5425 8.2ZM18.125 11.3675C18.1248 11.5219 18.0634 11.67 17.9542 11.7792C17.845 11.8884 17.6969 11.9498 17.5425 11.95H17.4625C17.0998 11.9531 16.746 12.0629 16.4453 12.2656C16.1446 12.4684 15.9102 12.7552 15.7714 13.0903C15.6326 13.4254 15.5955 13.794 15.6647 14.15C15.7339 14.506 15.9064 14.8338 16.1606 15.0925L16.2169 15.1494C16.326 15.2588 16.3873 15.407 16.3873 15.5616C16.3873 15.7161 16.326 15.8643 16.2169 15.9737L15.2725 16.9169C15.1633 17.0261 15.0151 17.0875 14.8606 17.0875C14.7061 17.0875 14.558 17.0261 14.4487 16.9169L14.3925 16.86C14.1337 16.606 13.8059 16.4338 13.45 16.3648C13.0941 16.2957 12.7257 16.3329 12.3907 16.4717C12.0557 16.6104 11.769 16.8447 11.5662 17.1452C11.3633 17.4457 11.2534 17.7993 11.25 18.1619V18.2425C11.2498 18.3969 11.1884 18.545 11.0792 18.6542C10.97 18.7634 10.8219 18.8248 10.6675 18.825H9.3325C9.17806 18.8248 9.03 18.7634 8.92079 18.6542C8.81159 18.545 8.75016 18.3969 8.75 18.2425V18.1619C8.74824 17.7986 8.63923 17.4439 8.43665 17.1423C8.23406 16.8407 7.94693 16.6057 7.61127 16.4667C7.2756 16.3277 6.90637 16.291 6.54989 16.361C6.19342 16.4311 5.86557 16.6049 5.6075 16.8606L5.55062 16.9175C5.44122 17.0264 5.29313 17.0876 5.13875 17.0876C4.98437 17.0876 4.83628 17.0264 4.72688 16.9175L3.78312 15.9744C3.67401 15.8649 3.61273 15.7167 3.61273 15.5622C3.61273 15.4077 3.67401 15.2594 3.78312 15.15L3.84 15.0931C4.0945 14.8344 4.26718 14.5065 4.33649 14.1503C4.40581 13.7941 4.36869 13.4254 4.22977 13.0902C4.09084 12.7549 3.85627 12.468 3.55532 12.2653C3.25437 12.0625 2.90037 11.9528 2.5375 11.95H2.4575C2.30306 11.9498 2.155 11.8884 2.04579 11.7792C1.93659 11.67 1.87517 11.5219 1.875 11.3675V10.0325C1.87517 9.87806 1.93659 9.72999 2.04579 9.62079C2.155 9.51159 2.30306 9.45016 2.4575 9.45H2.5375C2.90019 9.44691 3.25395 9.33713 3.55468 9.13435C3.8554 8.93157 4.08979 8.64476 4.22861 8.30967C4.36743 7.97458 4.40454 7.60604 4.33533 7.25C4.26611 6.89396 4.09363 6.56617 3.83938 6.3075L3.78312 6.25062C3.67405 6.1413 3.61279 5.99318 3.61279 5.83875C3.61279 5.68432 3.67405 5.53619 3.78312 5.42687L4.72688 4.4825C4.83611 4.37327 4.98427 4.3119 5.13875 4.3119C5.29323 4.3119 5.44139 4.37327 5.55062 4.4825L5.60687 4.53937C5.86559 4.7935 6.19336 4.9659 6.54935 5.03509C6.90534 5.10428 7.27382 5.06721 7.60889 4.92849C7.94396 4.78977 8.23082 4.55553 8.43372 4.25496C8.63663 3.95439 8.74662 3.60076 8.75 3.23812V3.1575C8.75016 3.00306 8.81159 2.85499 8.92079 2.74579C9.03 2.63659 9.17806 2.57516 9.3325 2.575H10.6675C10.8219 2.57516 10.97 2.63659 11.0792 2.74579C11.1884 2.85499 11.2498 3.00306 11.25 3.1575V3.23812C11.2532 3.60076 11.3631 3.95444 11.5659 4.25507C11.7687 4.5557 12.0555 4.78999 12.3906 4.92873C12.7257 5.06747 13.0942 5.10454 13.4501 5.0353C13.8061 4.96606 14.1339 4.79359 14.3925 4.53937L14.4494 4.4825C14.5586 4.37327 14.7068 4.3119 14.8612 4.3119C15.0157 4.3119 15.1639 4.37327 15.2731 4.4825L16.2169 5.42687C16.326 5.53619 16.3872 5.68432 16.3872 5.83875C16.3872 5.99318 16.326 6.1413 16.2169 6.25062L16.16 6.3075C15.9057 6.56621 15.7332 6.89406 15.664 7.25015C15.5948 7.60625 15.632 7.97484 15.7709 8.30995C15.9098 8.64507 16.1443 8.93187 16.4451 9.13461C16.7459 9.33734 17.0998 9.44703 17.4625 9.45H17.5425C17.6969 9.45016 17.845 9.51159 17.9542 9.62079C18.0634 9.72999 18.1248 9.87806 18.125 10.0325V11.3675Z" fill="#485D6B"/>
<path d="M10 6.325C9.13471 6.325 8.28885 6.58159 7.56938 7.06232C6.84992 7.54305 6.28916 8.22633 5.95803 9.02576C5.6269 9.82518 5.54026 10.7049 5.70907 11.5535C5.87788 12.4022 6.29456 13.1817 6.90641 13.7936C7.51826 14.4054 8.29781 14.8221 9.14648 14.9909C9.99515 15.1597 10.8748 15.0731 11.6742 14.742C12.4737 14.4108 13.157 13.8501 13.6377 13.1306C14.1184 12.4112 14.375 11.5653 14.375 10.7C14.3737 9.54008 13.9123 8.42805 13.0921 7.60787C12.2719 6.78768 11.1599 6.32632 10 6.325ZM10 13.825C9.38194 13.825 8.77775 13.6417 8.26384 13.2983C7.74994 12.955 7.3494 12.4669 7.11288 11.8959C6.87635 11.3249 6.81447 10.6965 6.93505 10.0903C7.05563 9.48415 7.35325 8.92733 7.79029 8.49029C8.22733 8.05325 8.78415 7.75562 9.39034 7.63504C9.99654 7.51446 10.6249 7.57635 11.1959 7.81287C11.7669 8.0494 12.255 8.44994 12.5983 8.96384C12.9417 9.47774 13.125 10.0819 13.125 10.7C13.124 11.5285 12.7945 12.3228 12.2086 12.9086C11.6228 13.4944 10.8285 13.824 10 13.825Z" fill="#485D6B"/>
</g>
<defs>
<clipPath id="clip0_323_1374">
<rect width="20" height="20" fill="white" transform="translate(0 0.699997)"/>
</clipPath>
</defs>
</svg>
