<svg width="24" height="24" viewBox="0 0 24 24" fill="none" xmlns="http://www.w3.org/2000/svg">
<path d="M20.0898 5.94726L16.5347 2.3922C16.3336 2.18998 16.0943 2.02965 15.8308 1.9205C15.5673 1.81134 15.2848 1.75552 14.9995 1.75626H8.34453C7.76851 1.75681 7.21625 1.98587 6.80894 2.39318C6.40164 2.80048 6.17257 3.35275 6.17203 3.92876V4.65751H5.44328C4.86841 4.65824 4.3173 4.88693 3.91081 5.29342C3.50432 5.69991 3.27563 6.25102 3.2749 6.82589V20.0754C3.27563 20.6503 3.50432 21.2014 3.91081 21.6079C4.3173 22.0143 4.86841 22.243 5.44328 22.2438H15.6609C16.2358 22.243 16.7869 22.0143 17.1934 21.6079C17.5999 21.2014 17.8285 20.6503 17.8293 20.0754V19.3446H18.5539C19.1294 19.3438 19.6811 19.115 20.0881 18.7081C20.4951 18.3013 20.7241 17.7496 20.725 17.1741V7.48108C20.725 6.91045 20.4933 6.35083 20.0898 5.94726ZM18.6103 6.21814H17.1899C16.6784 6.21814 16.2618 5.8022 16.2618 5.29001V3.86964L18.6103 6.21814ZM16.5918 20.0754C16.5918 20.589 16.1745 21.0063 15.6609 21.0063H5.44328C5.19651 21.0059 4.95995 20.9077 4.78545 20.7332C4.61096 20.5587 4.51277 20.3222 4.5124 20.0754V6.82589C4.5124 6.31233 4.92971 5.89501 5.44328 5.89501H6.17271V17.1748C6.17344 17.7502 6.40237 18.3017 6.80927 18.7085C7.21616 19.1153 7.7678 19.344 8.34315 19.3446H16.5918V20.0754ZM19.4875 17.1741C19.4875 17.6891 19.0695 18.1071 18.5546 18.1071H8.34315C8.09596 18.1069 7.85894 18.0086 7.68415 17.8338C7.50936 17.659 7.41108 17.422 7.4109 17.1748V3.92876C7.4109 3.41314 7.82959 2.99376 8.34521 2.99376H15.0002C15.0085 2.99376 15.016 2.99858 15.0243 2.99858V5.29001C15.0248 5.8642 15.2532 6.41472 15.6592 6.82074C16.0652 7.22675 16.6157 7.45509 17.1899 7.45564H19.482C19.482 7.46458 19.4868 7.47214 19.4868 7.48108V17.1741H19.4875Z" fill="white"/>
<path d="M10.0942 10.4703H12.7658C12.9299 10.4703 13.0873 10.4051 13.2033 10.2891C13.3194 10.1731 13.3845 10.0157 13.3845 9.85157C13.3845 9.68747 13.3194 9.53008 13.2033 9.41405C13.0873 9.29801 12.9299 9.23282 12.7658 9.23282H10.0942C9.93007 9.23282 9.77269 9.29801 9.65665 9.41405C9.54061 9.53008 9.47542 9.68747 9.47542 9.85157C9.47542 10.0157 9.54061 10.1731 9.65665 10.2891C9.77269 10.4051 9.93007 10.4703 10.0942 10.4703ZM16.8035 12.1636H10.0935C9.92938 12.1636 9.772 12.2288 9.65596 12.3449C9.53992 12.4609 9.47473 12.6183 9.47473 12.7824C9.47473 12.9465 9.53992 13.1039 9.65596 13.2199C9.772 13.3359 9.92938 13.4011 10.0935 13.4011H16.8035C16.9676 13.4011 17.125 13.3359 17.241 13.2199C17.357 13.1039 17.4222 12.9465 17.4222 12.7824C17.4222 12.6183 17.357 12.4609 17.241 12.3449C17.125 12.2288 16.9676 12.1636 16.8035 12.1636ZM15.3941 15.0944H10.0942C9.93007 15.0944 9.77269 15.1596 9.65665 15.2757C9.54061 15.3917 9.47542 15.5491 9.47542 15.7132C9.47542 15.8773 9.54061 16.0347 9.65665 16.1507C9.77269 16.2668 9.93007 16.3319 10.0942 16.3319H15.3941C15.5582 16.3319 15.7156 16.2668 15.8316 16.1507C15.9477 16.0347 16.0129 15.8773 16.0129 15.7132C16.0129 15.5491 15.9477 15.3917 15.8316 15.2757C15.7156 15.1596 15.5582 15.0944 15.3941 15.0944Z" fill="white"/>
</svg>
