<svg width="24" height="25" viewBox="0 0 24 25" fill="none" xmlns="http://www.w3.org/2000/svg">
<g clip-path="url(#clip0_35_198)">
<path d="M21.0525 17.62L19.77 15.775C19.5949 15.5242 19.5007 15.2259 19.5 14.92V9.625C19.5 7.63588 18.7098 5.72822 17.3033 4.3217C15.8968 2.91518 13.9891 2.125 12 2.125C10.0109 2.125 8.10322 2.91518 6.6967 4.3217C5.29017 5.72822 4.5 7.63588 4.5 9.625V14.92C4.49927 15.2259 4.40506 15.5242 4.23 15.775L2.9475 17.62C2.75331 17.8352 2.62561 18.102 2.57985 18.3882C2.53409 18.6744 2.57222 18.9677 2.68964 19.2327C2.80706 19.4977 2.99873 19.723 3.24148 19.8813C3.48423 20.0397 3.76766 20.1243 4.0575 20.125H8.325C8.49713 20.9727 8.95705 21.7349 9.6268 22.2823C10.2966 22.8297 11.135 23.1288 12 23.1288C12.865 23.1288 13.7034 22.8297 14.3732 22.2823C15.043 21.7349 15.5029 20.9727 15.675 20.125H19.9425C20.2323 20.1243 20.5158 20.0397 20.7585 19.8813C21.0013 19.723 21.1929 19.4977 21.3104 19.2327C21.4278 18.9677 21.4659 18.6744 21.4201 18.3882C21.3744 18.102 21.2467 17.8352 21.0525 17.62ZM12 21.625C11.5358 21.6237 11.0833 21.4788 10.7047 21.2103C10.3261 20.9418 10.0397 20.5627 9.885 20.125H14.115C13.9603 20.5627 13.6739 20.9418 13.2953 21.2103C12.9166 21.4788 12.4642 21.6237 12 21.625ZM4.0575 18.625C4.0914 18.5935 4.12159 18.5583 4.1475 18.52L5.46 16.63C5.81013 16.1284 5.99855 15.5317 6 14.92V9.625C6 8.0337 6.63214 6.50758 7.75736 5.38236C8.88258 4.25714 10.4087 3.625 12 3.625C13.5913 3.625 15.1174 4.25714 16.2426 5.38236C17.3679 6.50758 18 8.0337 18 9.625V14.92C18.0014 15.5317 18.1899 16.1284 18.54 16.63L19.8525 18.52C19.8784 18.5583 19.9086 18.5935 19.9425 18.625H4.0575Z" fill="white"/>
</g>
<defs>
<clipPath id="clip0_35_198">
<rect width="24" height="24" fill="white" transform="translate(0 0.625)"/>
</clipPath>
</defs>
</svg>
