<svg width="16" height="8" viewBox="0 0 16 8" fill="none" xmlns="http://www.w3.org/2000/svg">
<path d="M8.00006 8C7.91251 8.00009 7.82579 7.98288 7.74491 7.94936C7.66402 7.91583 7.59056 7.86666 7.52873 7.80466L0.862062 1.138C0.601562 0.877496 0.601562 0.455663 0.862062 0.195329C1.12256 -0.0650041 1.5444 -0.0651708 1.80473 0.195329L8.00006 6.39066L14.1954 0.195329C14.4559 -0.0651708 14.8777 -0.0651708 15.1381 0.195329C15.3984 0.455829 15.3986 0.877662 15.1381 1.138L8.4714 7.80466C8.40957 7.86666 8.3361 7.91583 8.25522 7.94936C8.17433 7.98288 8.08762 8.00009 8.00006 8Z" fill="#485D6B"/>
</svg>
