<svg width="24" height="24" viewBox="0 0 24 24" fill="none" xmlns="http://www.w3.org/2000/svg">
<g clip-path="url(#clip0_35_946)">
<path d="M14.7996 22.9996H4.90507C4.66189 22.9996 4.43144 22.8955 4.26627 22.7254C4.10109 22.5557 4 22.3266 4 22.0676V2.93202C4 2.67299 4.10109 2.44429 4.26627 2.2742C4.43144 2.1041 4.65353 2 4.90507 2H19.0802C19.3317 2 19.5538 2.1041 19.719 2.2742C19.8842 2.44429 19.9853 2.67299 19.9853 2.93202V17.5722C19.992 17.6091 20 17.6394 20 17.6763C20 17.8026 19.9427 17.9136 19.8627 17.9944L15.1869 22.8652C15.1077 22.9451 14.9242 23.0037 14.7996 22.9996ZM7.82129 6.72405L7.4595 6.82487C6.98308 6.82487 6.66229 6.69946 6.49791 6.44821C6.41274 6.32238 6.35303 6.18139 6.3192 6.02524C6.28498 5.86908 6.26826 5.67972 6.26826 5.45799C6.26826 4.95837 6.359 4.59359 6.5405 4.36448C6.72199 4.13496 7.04836 4.02061 7.5192 4.02061C7.99005 4.02061 8.31761 4.13578 8.50189 4.36653C8.68657 4.59728 8.77851 4.96124 8.77851 5.45799C8.77851 5.82891 8.70328 6.12811 8.55323 6.35599L8.8597 6.54002L8.63841 7.04415L7.82129 6.89045V6.72405ZM7.18289 6.14123H7.53632C7.65254 6.14123 7.73692 6.12729 7.78945 6.09983C7.84199 6.07196 7.86786 6.00843 7.86786 5.90925V4.76983H7.51045C7.39701 4.76983 7.31423 4.78377 7.26169 4.81123C7.20915 4.8391 7.18289 4.90263 7.18289 5.00222V6.14123ZM9.96179 4.63376V6.25066H10.0939C10.1962 6.25066 10.2706 6.23959 10.3172 6.21787C10.3638 6.19656 10.3877 6.14573 10.3877 6.06663V4.63376H11.2386V6.82487H10.8131L10.5664 6.57527C10.396 6.78553 10.1536 6.89045 9.83881 6.89045C9.58607 6.89045 9.40139 6.83471 9.28557 6.72405C9.16935 6.61338 9.11085 6.42772 9.11085 6.16787V4.63376H9.96179ZM11.8452 6.60355C11.6681 6.41255 11.5789 6.12073 11.5789 5.72932C11.5789 5.3379 11.6677 5.04649 11.8452 4.85509C12.0219 4.66409 12.3097 4.56818 12.7069 4.56818C13.1037 4.56818 13.3914 4.66409 13.5682 4.85509C13.7457 5.04649 13.8344 5.3379 13.8344 5.72932C13.8344 6.12073 13.7457 6.41255 13.5682 6.60355C13.3914 6.79454 13.1037 6.89045 12.7069 6.89045C12.3097 6.89045 12.0219 6.79454 11.8452 6.60355ZM12.4939 5.392V6.25066H12.6257C12.728 6.25066 12.8028 6.23959 12.8494 6.21787C12.8959 6.19656 12.9194 6.14573 12.9194 6.06663V5.20797H12.7877C12.6858 5.20797 12.6105 5.21904 12.564 5.24076C12.5174 5.26249 12.4939 5.31372 12.4939 5.392ZM14.047 5.19937V4.63376H14.2599V4.28333L15.1108 4.06447V4.63376H15.4046V5.19937H15.1108V6.1982C15.1849 6.21295 15.2685 6.2232 15.362 6.22894L15.3238 6.87324C14.9349 6.87324 14.6826 6.85028 14.5664 6.80725C14.4223 6.75438 14.3307 6.68429 14.2937 6.59699C14.2718 6.54453 14.2599 6.48305 14.2599 6.41296V5.19937H14.047ZM16.5532 6.03056V6.23344C16.913 6.27033 17.2637 6.2273 17.6088 6.115L17.711 6.75929C17.393 6.847 17.0782 6.89045 16.7662 6.89045C16.369 6.89045 16.0816 6.79454 15.9045 6.60355C15.7274 6.41255 15.6386 6.12073 15.6386 5.72932C15.6386 5.3379 15.7274 5.04649 15.9045 4.85509C16.0816 4.66409 16.3686 4.56818 16.7642 4.56818C17.1598 4.56818 17.4328 4.62392 17.5833 4.73459C17.7337 4.84566 17.8086 5.05305 17.8086 5.35675C17.8086 5.61415 17.7186 5.7494 17.5387 5.8617C17.3584 5.97441 17.03 6.03056 16.5532 6.03056ZM16.5532 5.392V5.57152H16.728C16.8302 5.57152 16.9047 5.56045 16.9512 5.53873C16.9978 5.51742 17.0217 5.4666 17.0217 5.38749V5.10879H16.847C16.7455 5.10879 16.6702 5.11985 16.6237 5.14158C16.5771 5.1633 16.5532 5.31372 16.5532 5.392ZM8.49433 17.9157C8.82109 17.9157 9.11721 18.0522 9.33134 18.2731C9.44153 18.3861 9.52893 18.5204 9.58849 18.6683C9.64806 18.8163 9.67861 18.9749 9.67841 19.135C9.67841 19.4715 9.54587 19.7764 9.33134 19.9974L9.31861 20.0093C9.10527 20.2228 8.81433 20.3544 8.49433 20.3544C8.16756 20.3544 7.87144 20.2179 7.65692 19.9974C7.44279 19.7764 7.31025 19.4715 7.31025 19.135C7.31025 18.7985 7.44279 18.4936 7.65692 18.2731C7.87144 18.0522 8.16756 17.9157 8.49433 17.9157ZM8.49433 16.9066C9.09095 16.9066 9.63184 17.1562 10.0239 17.5591L10.0251 17.5607C10.4163 17.964 10.6583 18.521 10.6583 19.135C10.6583 19.7502 10.4159 20.3076 10.0247 20.7109L10.0119 20.7228C9.62109 21.1187 9.08497 21.3638 8.49433 21.3638C7.89692 21.3638 7.35562 21.1142 6.96398 20.7109C6.57234 20.3076 6.33035 19.7502 6.33035 19.135C6.33035 18.5206 6.57274 17.9632 6.96478 17.5599C7.35562 17.1562 7.89692 16.9066 8.49433 16.9066ZM9.7206 17.8722C9.40696 17.5497 8.97353 17.3501 8.49433 17.3501C8.01552 17.3501 7.58209 17.5497 7.26846 17.8727C7.10722 18.0382 6.97937 18.235 6.89228 18.4516C6.80519 18.6683 6.76057 18.9005 6.761 19.135C6.761 19.6281 6.95483 20.0744 7.26846 20.3974C7.58209 20.7204 8.01552 20.92 8.49433 20.92C8.94929 20.9209 9.38622 20.7369 9.71025 20.408L9.7202 20.3974C10.0338 20.0744 10.2277 19.6281 10.2277 19.135C10.2277 18.6415 10.0338 18.1952 9.7206 17.8722ZM7.90368 9.83489C7.74328 9.83489 7.61313 9.70086 7.61313 9.53569C7.61313 9.3701 7.74328 9.23608 7.90368 9.23608H13.7313C13.8921 9.23608 14.0223 9.3701 14.0223 9.53569C14.0223 9.70086 13.8921 9.83489 13.7313 9.83489H7.90368ZM7.90368 14.4294C7.74328 14.4294 7.61313 14.2954 7.61313 14.1302C7.61313 13.965 7.74328 13.8306 7.90368 13.8306H15.9399C16.1003 13.8306 16.2304 13.965 16.2304 14.1302C16.2304 14.2954 16.1003 14.4294 15.9399 14.4294H7.90368ZM7.90368 12.6006C7.74328 12.6006 7.61313 12.467 7.61313 12.3014C7.61313 12.1362 7.74328 12.0022 7.90368 12.0022H13.7313C13.8921 12.0022 14.0223 12.1362 14.0223 12.3014C14.0223 12.467 13.8921 12.6006 13.7313 12.6006H7.90368ZM17.1638 11.1608H6.83622V15.2512H17.1638V11.1608ZM6.83622 10.562H17.1638V8.42333H6.83622V10.562ZM6.54527 7.82452H17.4543C17.6147 7.82452 17.7449 7.95855 17.7449 8.12413V15.5504C17.7449 15.7156 17.6147 15.8496 17.4543 15.8496H6.54527C6.38488 15.8496 6.25473 15.7156 6.25473 15.5504V8.12413C6.25473 7.95855 6.38488 7.82452 6.54527 7.82452ZM14.4549 22.1635V18.5178C14.4549 18.1694 14.5922 17.8513 14.8143 17.6226C14.9285 17.5051 15.064 17.412 15.2132 17.3485C15.3623 17.285 15.5222 17.2524 15.6836 17.2525H19.1586V2.93038C19.1586 2.90866 19.1518 2.87833 19.1292 2.86317C19.1144 2.848 19.0933 2.83284 19.0639 2.83284H4.89711C4.87562 2.83284 4.84617 2.8398 4.83184 2.86317C4.81672 2.87833 4.80239 2.90702 4.80239 2.93038V22.0676C4.80239 22.0979 4.80876 22.1196 4.83184 22.1348C4.84617 22.15 4.86766 22.1651 4.89711 22.1651H14.4549V22.1635ZM15.2669 18.5178V21.5712L18.6062 18.0886H15.6836C15.569 18.0886 15.4679 18.1407 15.3895 18.2149C15.3158 18.2887 15.2669 18.3997 15.2669 18.5178Z" fill="white"/>
</g>
<defs>
<clipPath id="clip0_35_946">
<rect width="16" height="21" fill="white" transform="translate(4 2)"/>
</clipPath>
</defs>
</svg>
