<svg width="16" height="16" viewBox="0 0 16 16" fill="none" xmlns="http://www.w3.org/2000/svg">
<path d="M0.781401 16.0002C0.626863 16.0002 0.475787 15.9544 0.347283 15.8686C0.218779 15.7828 0.118621 15.6607 0.059478 15.518C0.000334664 15.3752 -0.015137 15.2181 0.0150199 15.0665C0.0451769 14.9149 0.119608 14.7757 0.228898 14.6665L14.6665 0.228855C14.813 0.0823215 15.0118 0 15.219 0C15.4262 0 15.625 0.0823215 15.7715 0.228855C15.918 0.375388 16.0004 0.574129 16.0004 0.781358C16.0004 0.988587 15.918 1.18733 15.7715 1.33386L1.33391 15.7715C1.26142 15.8441 1.17529 15.9017 1.08047 15.941C0.985659 15.9802 0.884022 16.0004 0.781401 16.0002Z" fill="#BCBCBC"/>
<path d="M15.2192 16.0002C15.1166 16.0004 15.0149 15.9802 14.9201 15.941C14.8253 15.9017 14.7392 15.8441 14.6667 15.7715L0.229099 1.33386C0.0825656 1.18733 0.000244141 0.988587 0.000244141 0.781358C0.000244141 0.574129 0.0825656 0.375388 0.229099 0.228855C0.375632 0.0823215 0.574373 0 0.781603 0C0.988832 0 1.18757 0.0823215 1.33411 0.228855L15.7717 14.6665C15.881 14.7757 15.9554 14.9149 15.9856 15.0665C16.0157 15.2181 16.0003 15.3752 15.9411 15.518C15.882 15.6607 15.7818 15.7828 15.6533 15.8686C15.5248 15.9544 15.3737 16.0002 15.2192 16.0002Z" fill="#BCBCBC"/>
</svg>
