<svg width="24" height="25" viewBox="0 0 24 25" fill="none" xmlns="http://www.w3.org/2000/svg">
<path d="M4.16439 17.0489C4.01608 17.0488 3.8711 17.0048 3.7478 16.9224C3.62449 16.84 3.52838 16.7229 3.47163 16.5859C3.41488 16.4488 3.40003 16.2981 3.42895 16.1526C3.45788 16.0071 3.52928 15.8735 3.63414 15.7686L15.3544 4.04838C15.4236 3.97675 15.5063 3.91961 15.5978 3.8803C15.6893 3.841 15.7878 3.82031 15.8873 3.81944C15.9869 3.81858 16.0857 3.83755 16.1779 3.87526C16.27 3.91297 16.3538 3.96866 16.4242 4.03908C16.4946 4.1095 16.5503 4.19324 16.588 4.28541C16.6257 4.37759 16.6447 4.47634 16.6438 4.57593C16.643 4.67551 16.6223 4.77393 16.583 4.86543C16.5437 4.95693 16.4865 5.03969 16.4149 5.10888L4.69464 16.8291C4.54839 16.9754 4.35639 17.0489 4.16439 17.0489Z" fill="#485D6B"/>
<path d="M3.00634 22.45C2.89442 22.4501 2.78391 22.4251 2.6829 22.377C2.58188 22.3288 2.49293 22.2586 2.42256 22.1716C2.35219 22.0846 2.30219 21.9829 2.27622 21.8741C2.25024 21.7652 2.24896 21.6519 2.27246 21.5425L3.43121 16.1414C3.45161 16.0448 3.49086 15.9532 3.54672 15.8719C3.60258 15.7905 3.67395 15.721 3.75673 15.6673C3.83952 15.6135 3.93209 15.5767 4.02915 15.5588C4.12621 15.5409 4.22584 15.5424 4.32233 15.5631C4.41883 15.5838 4.51029 15.6233 4.59147 15.6794C4.67265 15.7355 4.74196 15.8071 4.79543 15.8901C4.84889 15.973 4.88546 16.0657 4.90303 16.1628C4.9206 16.2599 4.91884 16.3596 4.89784 16.456L3.73909 21.8571C3.70315 22.0248 3.61082 22.1752 3.47748 22.2831C3.34414 22.3909 3.17785 22.4499 3.00634 22.45ZM8.40671 21.2913C8.2584 21.2912 8.11342 21.2472 7.99012 21.1648C7.86681 21.0824 7.77071 20.9653 7.71395 20.8282C7.6572 20.6912 7.64235 20.5404 7.67127 20.395C7.7002 20.2495 7.7716 20.1159 7.87646 20.011L19.5967 8.29113C19.6659 8.2195 19.7487 8.16236 19.8402 8.12305C19.9317 8.08375 20.0301 8.06306 20.1297 8.06219C20.2292 8.06133 20.328 8.0803 20.4202 8.11801C20.5123 8.15572 20.5961 8.21141 20.6665 8.28183C20.7369 8.35225 20.7926 8.43599 20.8303 8.52816C20.868 8.62034 20.887 8.7191 20.8861 8.81868C20.8853 8.91827 20.8646 9.01668 20.8253 9.10818C20.786 9.19969 20.7288 9.28244 20.6572 9.35163L8.93734 21.0715C8.86774 21.1413 8.78503 21.1966 8.69396 21.2344C8.6029 21.2721 8.50528 21.2914 8.40671 21.2913Z" fill="#485D6B"/>
<path d="M3.00488 22.45C2.82007 22.4492 2.64205 22.3803 2.50494 22.2563C2.36783 22.1324 2.28127 21.9623 2.26185 21.7785C2.24243 21.5947 2.29151 21.4102 2.3997 21.2604C2.50789 21.1105 2.66756 21.0059 2.84813 20.9665L8.24925 19.8077C8.44347 19.7667 8.64603 19.8044 8.81255 19.9124C8.97906 20.0205 9.09594 20.1902 9.13758 20.3842C9.17921 20.5783 9.14221 20.781 9.03467 20.9479C8.92713 21.1147 8.75784 21.2321 8.56388 21.2744L3.16275 22.4331C3.11089 22.4444 3.05796 22.4501 3.00488 22.45ZM18.0056 11.6924C17.9071 11.6926 17.8095 11.6732 17.7185 11.6355C17.6275 11.5978 17.5449 11.5424 17.4754 11.4726L13.233 7.23025C13.1614 7.16106 13.1042 7.07831 13.0649 6.9868C13.0256 6.8953 13.0049 6.79688 13.0041 6.6973C13.0032 6.59772 13.0222 6.49896 13.0599 6.40678C13.0976 6.31461 13.1533 6.23087 13.2237 6.16045C13.2941 6.09003 13.3779 6.03434 13.47 5.99663C13.5622 5.95892 13.661 5.93995 13.7606 5.94081C13.8601 5.94168 13.9586 5.96237 14.0501 6.00167C14.1416 6.04098 14.2243 6.09812 14.2935 6.16975L18.5359 10.4121C18.6407 10.517 18.7121 10.6506 18.7411 10.7961C18.77 10.9416 18.7551 11.0923 18.6984 11.2294C18.6416 11.3664 18.5455 11.4835 18.4222 11.5659C18.2989 11.6483 18.1539 11.6923 18.0056 11.6924ZM20.127 9.57137C19.9786 9.57149 19.8335 9.52757 19.71 9.44516C19.5866 9.36276 19.4904 9.24558 19.4335 9.10847C19.3767 8.97135 19.3619 8.82046 19.3909 8.67489C19.4198 8.52933 19.4914 8.39564 19.5964 8.29075C20.0138 7.87337 20.2436 7.30825 20.2436 6.7C20.2436 6.09175 20.0138 5.52662 19.5964 5.10925C19.1786 4.6915 18.6135 4.46162 18.0053 4.46162C17.397 4.46162 16.8319 4.6915 16.4145 5.10925C16.3448 5.17891 16.2621 5.23416 16.1711 5.27186C16.0801 5.30956 15.9826 5.32896 15.8841 5.32896C15.7856 5.32896 15.688 5.30956 15.597 5.27186C15.506 5.23416 15.4233 5.17891 15.3536 5.10925C15.284 5.03959 15.2287 4.9569 15.191 4.86588C15.1533 4.77487 15.1339 4.67732 15.1339 4.57881C15.1339 4.4803 15.1533 4.38275 15.191 4.29174C15.2287 4.20073 15.284 4.11803 15.3536 4.04837C16.0541 3.3475 16.9958 2.96162 18.0053 2.96162C19.0144 2.96162 19.9564 3.3475 20.6569 4.04837C21.3578 4.74887 21.7436 5.6905 21.7436 6.7C21.7436 7.7095 21.3578 8.65112 20.6569 9.35162C20.5874 9.42139 20.5048 9.47673 20.4139 9.51445C20.323 9.55216 20.2255 9.57151 20.127 9.57137Z" fill="#485D6B"/>
</svg>
