<svg width="24" height="24" viewBox="0 0 24 24" fill="none" xmlns="http://www.w3.org/2000/svg">
<g clip-path="url(#clip0_35_959)">
<path d="M4.78103 19.9999C4.62649 19.9999 4.47542 19.9541 4.34691 19.8682C4.21841 19.7824 4.11825 19.6604 4.05911 19.5176C3.99997 19.3748 3.9845 19.2177 4.01465 19.0662C4.04481 18.9146 4.11924 18.7754 4.22853 18.6661L18.666 4.22861C18.8126 4.08208 19.0113 3.99976 19.2185 3.99976C19.4258 3.99976 19.6245 4.08208 19.771 4.22861C19.9176 4.37514 19.9999 4.57388 19.9999 4.78111C19.9999 4.98834 19.9176 5.18708 19.771 5.33361L5.33353 19.7711C5.26104 19.8437 5.17492 19.9013 5.0801 19.9406C4.98529 19.9799 4.88365 20 4.78103 19.9999Z" fill="white"/>
<path d="M19.2186 19.9999C19.116 20 19.0144 19.9799 18.9195 19.9406C18.8247 19.9013 18.7386 19.8437 18.6661 19.7711L4.22861 5.33361C4.08208 5.18708 3.99976 4.98834 3.99976 4.78111C3.99976 4.57388 4.08208 4.37514 4.22861 4.22861C4.37514 4.08208 4.57388 3.99976 4.78111 3.99976C4.98834 3.99976 5.18708 4.08208 5.33361 4.22861L19.7711 18.6661C19.8804 18.7754 19.9548 18.9146 19.985 19.0662C20.0151 19.2177 19.9997 19.3748 19.9405 19.5176C19.8814 19.6604 19.7812 19.7824 19.6527 19.8682C19.5242 19.9541 19.3731 19.9999 19.2186 19.9999Z" fill="white"/>
</g>
<defs>
<clipPath id="clip0_35_959">
<rect width="16" height="16" fill="white" transform="translate(4 4)"/>
</clipPath>
</defs>
</svg>
