<svg width="24" height="24" viewBox="0 0 24 24" fill="none" xmlns="http://www.w3.org/2000/svg">
<path d="M9.06438 11.2644C8.86928 11.2644 8.68217 11.1869 8.54421 11.0489C8.40626 10.911 8.32875 10.7238 8.32875 10.5287V8.32875C8.31885 8.22663 8.33041 8.12358 8.3627 8.0262C8.39499 7.92882 8.44729 7.83927 8.51624 7.7633C8.5852 7.68733 8.66928 7.62663 8.76308 7.58509C8.85689 7.54355 8.95835 7.52209 9.06094 7.52209C9.16354 7.52209 9.26499 7.54355 9.3588 7.58509C9.45261 7.62663 9.53669 7.68733 9.60564 7.7633C9.6746 7.83927 9.7269 7.92882 9.75919 8.0262C9.79147 8.12358 9.80304 8.22663 9.79313 8.32875V10.5287C9.79314 10.7227 9.71658 10.9087 9.58011 11.0465C9.44363 11.1843 9.25829 11.2626 9.06438 11.2644ZM12 11.2644C11.8049 11.2644 11.6178 11.1869 11.4798 11.0489C11.3419 10.911 11.2644 10.7238 11.2644 10.5287V7.6C11.282 7.41805 11.3668 7.24919 11.5022 7.12633C11.6375 7.00347 11.8138 6.9354 11.9966 6.9354C12.1794 6.9354 12.3556 7.00347 12.491 7.12633C12.6263 7.24919 12.7111 7.41805 12.7288 7.6V10.5356C12.727 10.7283 12.6496 10.9127 12.5133 11.0489C12.377 11.1852 12.1927 11.2626 12 11.2644ZM14.9356 11.2644C14.7405 11.2644 14.5534 11.1869 14.4155 11.0489C14.2775 10.911 14.2 10.7238 14.2 10.5287V6.13562C14.1901 6.03351 14.2017 5.93045 14.234 5.83307C14.2662 5.73569 14.3185 5.64614 14.3875 5.57017C14.4564 5.49421 14.5405 5.43351 14.6343 5.39196C14.7281 5.35042 14.8296 5.32896 14.9322 5.32896C15.0348 5.32896 15.1362 5.35042 15.2301 5.39196C15.3239 5.43351 15.4079 5.49421 15.4769 5.57017C15.5458 5.64614 15.5981 5.73569 15.6304 5.83307C15.6627 5.93045 15.6743 6.03351 15.6644 6.13562V10.5356C15.6626 10.7283 15.5852 10.9127 15.449 11.0489C15.3127 11.1852 15.1284 11.2626 14.9356 11.2644Z" fill="white"/>
<path d="M17.8643 23H6.13558C5.357 23 4.61032 22.6907 4.05978 22.1402C3.50924 21.5896 3.19996 20.843 3.19996 20.0644V6.775C3.19912 6.237 3.31699 5.70543 3.54515 5.21821C3.77332 4.73098 4.10616 4.30009 4.51996 3.95625L7.04996 1.8525C7.70825 1.30392 8.53743 1.0024 9.39433 1L17.8643 1C18.6429 1 19.3896 1.30929 19.9401 1.85982C20.4907 2.41036 20.8 3.15705 20.8 3.93563V20.0644C20.8 20.843 20.4907 21.5896 19.9401 22.1402C19.3896 22.6907 18.6429 23 17.8643 23ZM9.39433 2.46438C8.89141 2.47231 8.4063 2.65181 8.01933 2.97312L5.45496 5.08375C5.20686 5.29012 5.00736 5.5487 4.8707 5.84105C4.73403 6.13339 4.66357 6.45229 4.66433 6.775V20.0644C4.66614 20.4522 4.821 20.8236 5.09523 21.0978C5.36947 21.3721 5.74089 21.5269 6.12871 21.5288H17.8643C18.2522 21.5269 18.6236 21.3721 18.8978 21.0978C19.172 20.8236 19.3269 20.4522 19.3287 20.0644V3.93563C19.3269 3.54781 19.172 3.17639 18.8978 2.90215C18.6236 2.62792 18.2522 2.47306 17.8643 2.47125L9.39433 2.46438Z" fill="white"/>
<path d="M16.4 18.6H7.59999C7.49788 18.6099 7.39482 18.5983 7.29744 18.566C7.20006 18.5338 7.11051 18.4815 7.03455 18.4125C6.95858 18.3436 6.89788 18.2595 6.85634 18.1657C6.81479 18.0719 6.79333 17.9704 6.79333 17.8678C6.79333 17.7652 6.81479 17.6638 6.85634 17.5699C6.89788 17.4761 6.95858 17.3921 7.03455 17.3231C7.11051 17.2542 7.20006 17.2018 7.29744 17.1696C7.39482 17.1373 7.49788 17.1257 7.59999 17.1356H16.4C16.5021 17.1257 16.6052 17.1373 16.7025 17.1696C16.7999 17.2018 16.8895 17.2542 16.9654 17.3231C17.0414 17.3921 17.1021 17.4761 17.1437 17.5699C17.1852 17.6638 17.2066 17.7652 17.2066 17.8678C17.2066 17.9704 17.1852 18.0719 17.1437 18.1657C17.1021 18.2595 17.0414 18.3436 16.9654 18.4125C16.8895 18.4815 16.7999 18.5338 16.7025 18.566C16.6052 18.5983 16.5021 18.6099 16.4 18.6ZM16.4 14.9356H7.59999C7.41804 14.918 7.24919 14.8332 7.12632 14.6978C7.00346 14.5625 6.9354 14.3862 6.9354 14.2034C6.9354 14.0206 7.00346 13.8444 7.12632 13.709C7.24919 13.5737 7.41804 13.4889 7.59999 13.4712H16.4C16.5021 13.4613 16.6052 13.4729 16.7025 13.5052C16.7999 13.5375 16.8895 13.5898 16.9654 13.6587C17.0414 13.7277 17.1021 13.8118 17.1437 13.9056C17.1852 13.9994 17.2066 14.1008 17.2066 14.2034C17.2066 14.306 17.1852 14.4075 17.1437 14.5013C17.1021 14.5951 17.0414 14.6792 16.9654 14.7481C16.8895 14.8171 16.7999 14.8694 16.7025 14.9017C16.6052 14.934 16.5021 14.9455 16.4 14.9356Z" fill="white"/>
</svg>
