<svg width="24" height="24" viewBox="0 0 24 24" fill="none" xmlns="http://www.w3.org/2000/svg">
<path d="M12 18.875C4.80307 18.875 1.23495 12.6009 1.08662 12.334C1.02982 12.2318 1.00002 12.1168 1.00002 11.9999C1.00002 11.883 1.02982 11.768 1.08662 11.6659C1.23495 11.3991 4.80307 5.125 12 5.125C19.1969 5.125 22.765 11.3991 22.9134 11.666C22.9702 11.7682 23 11.8832 23 12.0001C23 12.117 22.9702 12.232 22.9134 12.3341C22.765 12.6009 19.1969 18.875 12 18.875ZM2.49651 11.999C3.31429 13.2384 6.52509 17.5 12 17.5C17.4923 17.5 20.6888 13.2418 21.5035 12.001C20.6857 10.7616 17.4749 6.5 12 6.5C6.50773 6.5 3.3112 10.7582 2.49651 11.999ZM12 16.125C9.7254 16.125 7.875 14.2746 7.875 12C7.875 9.72541 9.7254 7.875 12 7.875C14.2746 7.875 16.125 9.72541 16.125 12C16.125 14.2746 14.2746 16.125 12 16.125ZM12 9.25C10.4837 9.25 9.25 10.4837 9.25 12C9.25 13.5163 10.4837 14.75 12 14.75C13.5163 14.75 14.75 13.5163 14.75 12C14.75 10.4837 13.5163 9.25 12 9.25Z" fill="#485D6B"/>
</svg>
