<svg width="24" height="24" viewBox="0 0 24 24" fill="none" xmlns="http://www.w3.org/2000/svg">
<path d="M9.06452 7.06247H20.5309L14.2673 11.9812C14.1415 12.0774 13.9911 12.1359 13.8334 12.1501C13.6749 12.1356 13.5236 12.0771 13.3966 11.9812L8.9203 8.46485C8.87293 8.42648 8.81867 8.39753 8.76043 8.37954C8.97763 8.07517 9.09142 7.70913 9.08506 7.33527C9.08318 7.24403 9.07632 7.15296 9.06452 7.06247ZM6.14855 3.89911C6.16297 3.90156 6.18668 3.9106 6.23826 3.93456C6.34019 3.98296 6.50226 4.10762 6.6609 4.28142C6.98039 4.62951 7.29963 5.15678 7.46537 5.50487C7.4705 5.51514 7.47588 5.52638 7.48077 5.53787C7.95108 6.34478 8.15397 6.962 8.16008 7.3492C8.16668 7.73811 8.0623 7.90556 7.73255 8.095L6.88188 8.58536C6.32772 8.90436 6.06592 9.47611 6.0009 10.0095C5.93563 10.5431 6.0317 11.0616 6.26906 11.4715L8.36883 15.0905C8.60668 15.5002 9.0127 15.8429 9.50917 16.0534C10.0061 16.2643 10.6346 16.324 11.1887 16.0057L12.0394 15.5163C12.3689 15.3274 12.5681 15.3235 12.9028 15.5224C13.2384 15.7219 13.6743 16.2037 14.1426 17.0111C14.1492 17.0231 14.1556 17.0331 14.1631 17.0446C14.3827 17.3612 14.6816 17.8982 14.8258 18.348C14.8975 18.5714 14.9256 18.7733 14.9165 18.885C14.9065 18.9972 14.9041 18.9857 14.8745 19.0033L14.2272 19.3744C12.6011 20.0796 11.1108 19.9205 9.77879 19.2297C8.44437 18.536 7.28448 17.2832 6.47586 15.8124C6.47317 15.8094 6.47195 15.8058 6.46975 15.8038L4.6985 12.7512C4.69557 12.7482 4.69435 12.7456 4.6919 12.7416C3.81557 11.3092 3.30492 9.68291 3.36897 8.18667C3.43301 6.69262 4.03923 5.33058 5.46728 4.28265L6.11481 3.9128C6.12972 3.90425 6.13461 3.89765 6.14855 3.89911ZM6.15515 2.98953C5.98379 2.98685 5.80901 3.02278 5.65183 3.11396L4.96715 3.50776C4.95175 3.51656 4.93757 3.5256 4.92363 3.5344C3.27632 4.74 2.51781 6.41836 2.44375 8.14829C2.36968 9.87749 2.94706 11.6622 3.90088 13.2225L5.66626 16.2646L5.6621 16.2555C6.54332 17.8569 7.80612 19.2461 9.3493 20.0464C10.8932 20.8479 12.7324 21.0337 14.6058 20.2168C14.6212 20.2102 14.6369 20.2028 14.6508 20.1943L15.3365 19.8005C15.6535 19.6201 15.8129 19.269 15.8388 18.9625C15.8655 18.657 15.8031 18.3595 15.7085 18.0664C15.5232 17.4868 15.2001 16.9238 14.9331 16.5376C14.4289 15.6701 13.9419 15.068 13.3792 14.7314C13.1074 14.568 12.7967 14.4804 12.4795 14.478C12.1623 14.4755 11.8503 14.5582 11.5759 14.7175L10.7253 15.2078C10.474 15.3526 10.1802 15.3357 9.87095 15.2049C9.56319 15.0741 9.27817 14.8126 9.17232 14.6292L7.07255 11.0105C6.96646 10.8262 6.87968 10.4502 6.92075 10.1188C6.96035 9.78827 7.09455 9.5294 7.34608 9.38445L8.17255 8.90925C8.19406 9.01998 8.25663 9.12045 8.34732 9.18791L12.8238 12.705C13.1055 12.9279 13.4487 13.0592 13.8072 13.0812C13.8251 13.0822 13.8429 13.0822 13.8608 13.0812C14.2189 13.0591 14.5617 12.9278 14.8429 12.705L21.0083 7.86156V15.8632C21.0083 15.9849 20.8695 16.1453 20.5972 16.1453H16.3289C16.2681 16.1449 16.2077 16.1565 16.1514 16.1795C16.095 16.2025 16.0437 16.2364 16.0005 16.2792C15.9573 16.3221 15.923 16.3731 15.8996 16.4293C15.8761 16.4854 15.8641 16.5457 15.864 16.6066C15.864 16.8615 16.0723 17.0688 16.3289 17.0673H20.5972C21.2948 17.0673 21.936 16.563 21.936 15.8632V7.34456C21.936 6.64422 21.2948 6.14018 20.5972 6.14018H8.81055C8.68001 5.81385 8.50768 5.46796 8.29061 5.092C8.08748 4.66911 7.75797 4.11007 7.34559 3.66053C7.13732 3.43271 6.91268 3.2308 6.63181 3.10027V3.10149C6.48241 3.03151 6.32008 2.99338 6.15515 2.98953Z" fill="white"/>
</svg>
