<svg width="24" height="24" viewBox="0 0 24 24" fill="none" xmlns="http://www.w3.org/2000/svg">
<g clip-path="url(#clip0_85_7745)">
<path d="M6.37562 15.123C6.26916 15.123 6.1651 15.0914 6.0766 15.0323C5.98809 14.9731 5.91911 14.8891 5.87837 14.7907C5.83764 14.6924 5.82698 14.5841 5.84774 14.4797C5.8685 14.3753 5.91975 14.2794 5.99502 14.2041L14.4075 5.79166C14.4571 5.74025 14.5165 5.69924 14.5822 5.67102C14.6479 5.64281 14.7185 5.62796 14.79 5.62734C14.8615 5.62672 14.9324 5.64034 14.9985 5.66741C15.0647 5.69447 15.1248 5.73445 15.1753 5.78499C15.2259 5.83554 15.2659 5.89564 15.2929 5.9618C15.32 6.02796 15.3336 6.09885 15.333 6.17032C15.3324 6.2418 15.3175 6.31244 15.2893 6.37812C15.2611 6.4438 15.2201 6.5032 15.1687 6.55286L6.75621 14.9653C6.65124 15.0703 6.51343 15.123 6.37562 15.123Z" fill="#485D6B"/>
<path d="M5.54462 19C5.46429 19.0001 5.38497 18.9822 5.31246 18.9476C5.23996 18.913 5.17611 18.8627 5.1256 18.8002C5.07509 18.7377 5.0392 18.6648 5.02056 18.5866C5.00192 18.5085 5.00099 18.4272 5.01786 18.3486L5.84958 14.4719C5.86422 14.4026 5.8924 14.3368 5.93249 14.2784C5.97258 14.22 6.02381 14.1701 6.08323 14.1316C6.14265 14.093 6.2091 14.0665 6.27876 14.0537C6.34843 14.0409 6.41994 14.0419 6.4892 14.0568C6.55846 14.0716 6.62411 14.1 6.68238 14.1403C6.74065 14.1806 6.7904 14.232 6.82877 14.2915C6.86715 14.351 6.8934 14.4176 6.90601 14.4873C6.91862 14.557 6.91736 14.6285 6.90228 14.6977L6.07056 18.5745C6.04477 18.6949 5.9785 18.8028 5.88279 18.8802C5.78709 18.9576 5.66773 18.9999 5.54462 19ZM9.42085 18.1683C9.31439 18.1683 9.21034 18.1367 9.12183 18.0775C9.03332 18.0184 8.96434 17.9343 8.92361 17.836C8.88287 17.7376 8.87221 17.6294 8.89297 17.525C8.91373 17.4206 8.96499 17.3247 9.04025 17.2494L17.4527 8.8372C17.5024 8.78578 17.5618 8.74477 17.6274 8.71656C17.6931 8.68834 17.7638 8.67349 17.8352 8.67287C17.9067 8.67225 17.9776 8.68587 18.0438 8.71294C18.1099 8.74001 18.17 8.77998 18.2206 8.83052C18.2711 8.88107 18.3111 8.94117 18.3382 9.00733C18.3652 9.07349 18.3788 9.14438 18.3782 9.21586C18.3776 9.28734 18.3628 9.35798 18.3345 9.42365C18.3063 9.48933 18.2653 9.54873 18.2139 9.59839L9.80172 18.0106C9.75176 18.0607 9.69239 18.1004 9.62703 18.1275C9.56167 18.1545 9.49159 18.1684 9.42085 18.1683Z" fill="#485D6B"/>
<path d="M5.54363 19C5.41098 18.9995 5.28321 18.95 5.18479 18.861C5.08638 18.7721 5.02425 18.6499 5.01031 18.518C4.99637 18.3861 5.0316 18.2537 5.10926 18.1461C5.18691 18.0386 5.30152 17.9635 5.43112 17.9352L9.30789 17.1035C9.4473 17.074 9.59269 17.1011 9.71221 17.1786C9.83173 17.2562 9.91562 17.378 9.94551 17.5173C9.97539 17.6566 9.94883 17.8021 9.87164 17.9218C9.79446 18.0416 9.67294 18.1259 9.53372 18.1562L5.65695 18.9879C5.61973 18.996 5.58173 19.0001 5.54363 19ZM16.3107 11.2785C16.24 11.2786 16.17 11.2648 16.1047 11.2377C16.0393 11.2106 15.98 11.1709 15.9301 11.1208L12.8851 8.07573C12.8337 8.02608 12.7927 7.96667 12.7644 7.901C12.7362 7.83532 12.7214 7.76468 12.7208 7.6932C12.7201 7.62172 12.7338 7.55083 12.7608 7.48468C12.7879 7.41852 12.8279 7.35841 12.8784 7.30787C12.929 7.25732 12.9891 7.21735 13.0552 7.19028C13.1214 7.16321 13.1923 7.14959 13.2637 7.15021C13.3352 7.15084 13.4059 7.16569 13.4715 7.1939C13.5372 7.22211 13.5966 7.26312 13.6463 7.31454L16.6913 10.3596C16.7666 10.4349 16.8178 10.5308 16.8386 10.6352C16.8594 10.7396 16.8487 10.8478 16.808 10.9462C16.7672 11.0445 16.6983 11.1286 16.6098 11.1878C16.5212 11.2469 16.4172 11.2785 16.3107 11.2785ZM17.8334 9.75613C17.7269 9.75621 17.6227 9.72468 17.5341 9.66554C17.4455 9.60639 17.3764 9.52228 17.3356 9.42386C17.2949 9.32545 17.2842 9.21714 17.305 9.11266C17.3258 9.00818 17.3772 8.91222 17.4525 8.83693C17.7521 8.53735 17.9171 8.13172 17.9171 7.69514C17.9171 7.25855 17.7521 6.85292 17.4525 6.55334C17.1527 6.25349 16.747 6.0885 16.3105 6.0885C15.8739 6.0885 15.4682 6.25349 15.1687 6.55334C15.1187 6.60334 15.0593 6.643 14.994 6.67006C14.9287 6.69712 14.8586 6.71105 14.7879 6.71105C14.7172 6.71105 14.6472 6.69712 14.5819 6.67006C14.5166 6.643 14.4572 6.60334 14.4072 6.55334C14.3572 6.50334 14.3175 6.44399 14.2905 6.37866C14.2634 6.31334 14.2495 6.24332 14.2495 6.17261C14.2495 6.1019 14.2634 6.03189 14.2905 5.96656C14.3175 5.90123 14.3572 5.84188 14.4072 5.79188C14.91 5.28881 15.5859 5.01184 16.3105 5.01184C17.0348 5.01184 17.7109 5.28881 18.2137 5.79188C18.7168 6.29468 18.9938 6.97055 18.9938 7.69514C18.9938 8.41973 18.7168 9.0956 18.2137 9.5984C18.1639 9.64847 18.1046 9.68819 18.0393 9.71526C17.974 9.74234 17.9041 9.75622 17.8334 9.75613Z" fill="#485D6B"/>
</g>
<defs>
<clipPath id="clip0_85_7745">
<rect width="24" height="24" fill="white"/>
</clipPath>
</defs>
</svg>
