<svg width="18" height="19" viewBox="0 0 18 19" fill="none" xmlns="http://www.w3.org/2000/svg">
<path d="M16 1.35714H13.8333V0.678571C13.8333 0.498603 13.7631 0.326006 13.6381 0.198749C13.513 0.0714921 13.3435 0 13.1667 0C12.9899 0 12.8203 0.0714921 12.6953 0.198749C12.5702 0.326006 12.5 0.498603 12.5 0.678571V1.35714H5.5V0.678571C5.5 0.498603 5.42976 0.326006 5.30474 0.198749C5.17971 0.0714921 5.01014 0 4.83333 0C4.65652 0 4.48695 0.0714921 4.36193 0.198749C4.2369 0.326006 4.16667 0.498603 4.16667 0.678571V1.35714H2C1.46957 1.35714 0.960859 1.57162 0.585787 1.95339C0.210714 2.33516 0 2.85295 0 3.39286V16.9643C0 17.5042 0.210714 18.022 0.585787 18.4038C0.960859 18.7855 1.46957 19 2 19H16C16.5304 19 17.0391 18.7855 17.4142 18.4038C17.7893 18.022 18 17.5042 18 16.9643V3.39286C18 2.85295 17.7893 2.33516 17.4142 1.95339C17.0391 1.57162 16.5304 1.35714 16 1.35714ZM2 2.71429H16C16.1768 2.71429 16.3464 2.78578 16.4714 2.91303C16.5964 3.04029 16.6667 3.21289 16.6667 3.39286V5.67286H1.33333V3.39286C1.33333 3.21289 1.40357 3.04029 1.5286 2.91303C1.65362 2.78578 1.82319 2.71429 2 2.71429ZM16.6667 16.9643C16.6667 17.1443 16.5964 17.3169 16.4714 17.4441C16.3464 17.5714 16.1768 17.6429 16 17.6429H2C1.82319 17.6429 1.65362 17.5714 1.5286 17.4441C1.40357 17.3169 1.33333 17.1443 1.33333 16.9643V7.03H16.6667V16.9643Z" fill="#757575"/>
<path d="M4.5601 11.4746H3.4401C3.34806 11.4746 3.27344 11.5506 3.27344 11.6443V12.7843C3.27344 12.8779 3.34806 12.9539 3.4401 12.9539H4.5601C4.65215 12.9539 4.72677 12.8779 4.72677 12.7843V11.6443C4.72677 11.5506 4.65215 11.4746 4.5601 11.4746Z" fill="#757575"/>
<path d="M4.5601 14.8674H3.4401C3.34806 14.8674 3.27344 14.9434 3.27344 15.0371V16.1771C3.27344 16.2708 3.34806 16.3467 3.4401 16.3467H4.5601C4.65215 16.3467 4.72677 16.2708 4.72677 16.1771V15.0371C4.72677 14.9434 4.65215 14.8674 4.5601 14.8674Z" fill="#757575"/>
<path d="M4.5601 8.08179H3.4401C3.34806 8.08179 3.27344 8.15774 3.27344 8.25143V9.39143C3.27344 9.48512 3.34806 9.56107 3.4401 9.56107H4.5601C4.65215 9.56107 4.72677 9.48512 4.72677 9.39143V8.25143C4.72677 8.15774 4.65215 8.08179 4.5601 8.08179Z" fill="#757575"/>
<path d="M7.89336 8.08179H6.77336C6.68131 8.08179 6.60669 8.15774 6.60669 8.25143V9.39143C6.60669 9.48512 6.68131 9.56107 6.77336 9.56107H7.89336C7.9854 9.56107 8.06002 9.48512 8.06002 9.39143V8.25143C8.06002 8.15774 7.9854 8.08179 7.89336 8.08179Z" fill="#757575"/>
<path d="M7.89336 11.4746H6.77336C6.68131 11.4746 6.60669 11.5506 6.60669 11.6443V12.7843C6.60669 12.8779 6.68131 12.9539 6.77336 12.9539H7.89336C7.9854 12.9539 8.06002 12.8779 8.06002 12.7843V11.6443C8.06002 11.5506 7.9854 11.4746 7.89336 11.4746Z" fill="#757575"/>
<path d="M7.89336 14.8674H6.77336C6.68131 14.8674 6.60669 14.9434 6.60669 15.0371V16.1771C6.60669 16.2708 6.68131 16.3467 6.77336 16.3467H7.89336C7.9854 16.3467 8.06002 16.2708 8.06002 16.1771V15.0371C8.06002 14.9434 7.9854 14.8674 7.89336 14.8674Z" fill="#757575"/>
<path d="M11.2266 8.08179H10.1066C10.0146 8.08179 9.93994 8.15774 9.93994 8.25143V9.39143C9.93994 9.48512 10.0146 9.56107 10.1066 9.56107H11.2266C11.3187 9.56107 11.3933 9.48512 11.3933 9.39143V8.25143C11.3933 8.15774 11.3187 8.08179 11.2266 8.08179Z" fill="#757575"/>
<path d="M14.5601 8.08179H13.4401C13.3481 8.08179 13.2734 8.15774 13.2734 8.25143V9.39143C13.2734 9.48512 13.3481 9.56107 13.4401 9.56107H14.5601C14.6522 9.56107 14.7268 9.48512 14.7268 9.39143V8.25143C14.7268 8.15774 14.6522 8.08179 14.5601 8.08179Z" fill="#757575"/>
<path d="M11.2266 11.4746H10.1066C10.0146 11.4746 9.93994 11.5506 9.93994 11.6443V12.7843C9.93994 12.8779 10.0146 12.9539 10.1066 12.9539H11.2266C11.3187 12.9539 11.3933 12.8779 11.3933 12.7843V11.6443C11.3933 11.5506 11.3187 11.4746 11.2266 11.4746Z" fill="#757575"/>
<path d="M14.5601 11.4746H13.4401C13.3481 11.4746 13.2734 11.5506 13.2734 11.6443V12.7843C13.2734 12.8779 13.3481 12.9539 13.4401 12.9539H14.5601C14.6522 12.9539 14.7268 12.8779 14.7268 12.7843V11.6443C14.7268 11.5506 14.6522 11.4746 14.5601 11.4746Z" fill="#757575"/>
<path d="M11.2266 14.8674H10.1066C10.0146 14.8674 9.93994 14.9434 9.93994 15.0371V16.1771C9.93994 16.2708 10.0146 16.3467 10.1066 16.3467H11.2266C11.3187 16.3467 11.3933 16.2708 11.3933 16.1771V15.0371C11.3933 14.9434 11.3187 14.8674 11.2266 14.8674Z" fill="#757575"/>
</svg>
