<svg width="24" height="24" viewBox="0 0 24 24" fill="none" xmlns="http://www.w3.org/2000/svg">
<g clip-path="url(#clip0_1197_2036)">
<path d="M22.8182 19.2727V15.6364C22.8182 15.3953 22.7224 15.164 22.5519 14.9935C22.3814 14.8231 22.1502 14.7273 21.9091 14.7273C21.668 14.7273 21.4367 14.8231 21.2662 14.9935C21.0957 15.164 21 15.3953 21 15.6364V19.2727C21 19.5138 20.9042 19.7451 20.7337 19.9156C20.5632 20.086 20.332 20.1818 20.0909 20.1818H3.72724C3.48614 20.1818 3.25491 20.086 3.08442 19.9156C2.91393 19.7451 2.81815 19.5138 2.81815 19.2727V15.6364C2.81815 15.3953 2.72237 15.164 2.55188 14.9935C2.3814 14.8231 2.15017 14.7273 1.90906 14.7273C1.66795 14.7273 1.43672 14.8231 1.26624 14.9935C1.09575 15.164 0.999969 15.3953 0.999969 15.6364V19.2727C0.999969 19.996 1.28731 20.6897 1.79877 21.2012C2.31023 21.7127 3.00392 22 3.72724 22H20.0909C20.8142 22 21.5079 21.7127 22.0194 21.2012C22.5308 20.6897 22.8182 19.996 22.8182 19.2727ZM17.0182 14.5273L12.4727 18.1636C12.3122 18.2905 12.1136 18.3595 11.9091 18.3595C11.7045 18.3595 11.5059 18.2905 11.3454 18.1636L6.79997 14.5273C6.63435 14.3709 6.53344 14.1581 6.51721 13.931C6.50098 13.7038 6.57062 13.4788 6.71234 13.3005C6.85405 13.1222 7.05753 13.0036 7.28251 12.9682C7.50748 12.9327 7.73757 12.983 7.92724 13.1091L11 15.5636V2.90909C11 2.66799 11.0957 2.43675 11.2662 2.26627C11.4367 2.09578 11.668 2 11.9091 2C12.1502 2 12.3814 2.09578 12.5519 2.26627C12.7224 2.43675 12.8182 2.66799 12.8182 2.90909V15.5636L15.8909 13.1091C15.9824 13.0227 16.0909 12.9562 16.2095 12.9139C16.3281 12.8716 16.4541 12.8544 16.5797 12.8634C16.7052 12.8724 16.8276 12.9073 16.9389 12.966C17.0503 13.0248 17.1482 13.106 17.2266 13.2045C17.3049 13.3031 17.3619 13.4168 17.394 13.5385C17.4261 13.6603 17.4325 13.7873 17.4129 13.9117C17.3933 14.036 17.3481 14.1549 17.2802 14.2609C17.2122 14.3669 17.123 14.4576 17.0182 14.5273Z" fill="#485D6B"/>
</g>
<defs>
<clipPath id="clip0_1197_2036">
<rect width="24" height="24" fill="white"/>
</clipPath>
</defs>
</svg>
