<svg width="24" height="24" viewBox="0 0 24 24" fill="none" xmlns="http://www.w3.org/2000/svg">
<path d="M14.5099 9.24609C14.2512 9.24609 14.0415 9.45579 14.0415 9.71448V18.5671C14.0415 18.8256 14.2512 19.0355 14.5099 19.0355C14.7686 19.0355 14.9782 18.8256 14.9782 18.5671V9.71448C14.9782 9.45579 14.7686 9.24609 14.5099 9.24609ZM8.98284 9.24609C8.72415 9.24609 8.51445 9.45579 8.51445 9.71448V18.5671C8.51445 18.8256 8.72415 19.0355 8.98284 19.0355C9.24158 19.0355 9.45123 18.8256 9.45123 18.5671V9.71448C9.45123 9.45579 9.24158 9.24609 8.98284 9.24609Z" fill="#485D6B"/>
<path d="M4.95453 7.95405V19.4942C4.95453 20.1763 5.20465 20.8169 5.64157 21.2764C5.85671 21.5045 6.11607 21.6862 6.40381 21.8107C6.69155 21.9351 7.00164 21.9995 7.31513 22.0001H16.1773C16.4908 21.9996 16.8009 21.9351 17.0886 21.8107C17.3764 21.6863 17.6357 21.5045 17.8508 21.2764C18.2878 20.8169 18.5379 20.1763 18.5379 19.4942V7.95405C19.4064 7.72351 19.9692 6.88443 19.8531 5.99322C19.7367 5.10216 18.9775 4.43564 18.0788 4.43545H15.6807V3.84996C15.682 3.60623 15.6349 3.36465 15.5422 3.13926C15.4494 2.91388 15.3128 2.70916 15.1402 2.53701C14.9676 2.36488 14.7625 2.22875 14.5369 2.13653C14.3113 2.04431 14.0696 1.99784 13.8258 1.99982H9.66664C9.42288 1.99784 9.18116 2.04431 8.95551 2.13652C8.72987 2.22874 8.52479 2.36488 8.35219 2.53701C8.17964 2.70916 8.04301 2.91388 7.95023 3.13926C7.85745 3.36465 7.81037 3.60623 7.81172 3.84996V4.43545H5.41365C4.5149 4.43564 3.75578 5.10216 3.63939 5.99322C3.52322 6.88443 4.086 7.72351 4.95453 7.95405ZM16.1773 21.0633H7.31518C6.51432 21.0633 5.89131 20.3754 5.89131 19.4942V7.99522H17.6011V19.4942C17.6011 20.3754 16.9781 21.0633 16.1773 21.0633ZM8.7485 3.84996C8.74697 3.7292 8.76971 3.60937 8.81538 3.49757C8.86105 3.38577 8.92871 3.28428 9.01436 3.19913C9.09997 3.11393 9.20182 3.0468 9.31387 3.0017C9.42591 2.9566 9.54587 2.93446 9.66664 2.9366H13.8258C13.9466 2.93446 14.0665 2.9566 14.1786 3.0017C14.2906 3.0468 14.3925 3.11393 14.4781 3.19913C14.5637 3.28427 14.6314 3.38576 14.6771 3.49756C14.7227 3.60937 14.7455 3.7292 14.7439 3.84996V4.43545H8.7485V3.84996ZM5.41365 5.37223H18.0789C18.5445 5.37223 18.922 5.74971 18.922 6.21533C18.922 6.68096 18.5445 7.05844 18.0789 7.05844H5.4136C4.94798 7.05844 4.5705 6.68096 4.5705 6.21533C4.5705 5.74971 4.94802 5.37223 5.41365 5.37223Z" fill="#485D6B"/>
<path d="M11.7464 9.24609C11.4877 9.24609 11.278 9.45579 11.278 9.71448V18.5671C11.278 18.8256 11.4877 19.0355 11.7464 19.0355C12.0051 19.0355 12.2148 18.8256 12.2148 18.5671V9.71448C12.2148 9.45579 12.0051 9.24609 11.7464 9.24609Z" fill="#485D6B"/>
</svg>
