<svg width="7" height="12" viewBox="0 0 7 12" fill="none" xmlns="http://www.w3.org/2000/svg">
<path d="M6.50012 6C6.50019 5.93433 6.48728 5.8693 6.46214 5.80864C6.437 5.74797 6.40012 5.69287 6.35362 5.6465L1.35365 0.64653C1.15827 0.451157 0.841902 0.451157 0.646653 0.64653C0.451404 0.841904 0.451279 1.15828 0.646653 1.35353L5.29313 6L0.646653 10.6465C0.451279 10.8419 0.451279 11.1582 0.646653 11.3535C0.842027 11.5487 1.1584 11.5488 1.35365 11.3535L6.35362 6.3535C6.40012 6.30713 6.437 6.25203 6.46214 6.19137C6.48728 6.1307 6.50019 6.06567 6.50012 6Z" fill="#485D6B"/>
</svg>
