<svg width="24" height="24" viewBox="0 0 24 24" fill="none" xmlns="http://www.w3.org/2000/svg">
<g clip-path="url(#clip0_35_939)">
<path d="M19.5425 9.5H19.4625C19.3452 9.49896 19.231 9.46264 19.1347 9.39575C19.0384 9.32886 18.9644 9.23451 18.9225 9.125C18.8784 9.01925 18.8667 8.90276 18.8889 8.79035C18.9112 8.67794 18.9664 8.5747 19.0475 8.49375L19.1044 8.43687C19.4472 8.09272 19.6397 7.62672 19.6397 7.14094C19.6397 6.65515 19.4472 6.18916 19.1044 5.845L18.16 4.90125C17.8161 4.55814 17.3502 4.36545 16.8644 4.36545C16.3786 4.36545 15.9126 4.55814 15.5687 4.90125L15.5119 4.95812C15.4281 5.03882 15.3226 5.0933 15.2082 5.11488C15.0939 5.13646 14.9758 5.1242 14.8684 5.0796C14.7609 5.035 14.6688 4.96001 14.6034 4.86382C14.538 4.76764 14.502 4.65444 14.5 4.53812V4.4575C14.4995 3.97164 14.3063 3.50583 13.9627 3.16228C13.6192 2.81872 13.1534 2.6255 12.6675 2.625H11.3325C10.8466 2.6255 10.3808 2.81872 10.0373 3.16228C9.69372 3.50583 9.5005 3.97164 9.5 4.4575V4.53812C9.49695 4.65361 9.4605 4.76573 9.39504 4.86092C9.32959 4.9561 9.23794 5.03028 9.1312 5.07445C9.02446 5.11863 8.90721 5.13092 8.79363 5.10983C8.68005 5.08874 8.57502 5.03518 8.49125 4.95563L8.4375 4.89875C8.09361 4.55564 7.62766 4.36295 7.14188 4.36295C6.65609 4.36295 6.19014 4.55564 5.84625 4.89875L4.89875 5.8425C4.55591 6.18666 4.36341 6.65265 4.36341 7.13844C4.36341 7.62422 4.55591 8.09022 4.89875 8.43437L4.95563 8.49125C5.03753 8.57505 5.09236 8.68154 5.11298 8.7969C5.13359 8.91225 5.11906 9.03114 5.07125 9.13812C5.02836 9.24469 4.95467 9.33604 4.85959 9.4005C4.76451 9.46496 4.65237 9.4996 4.5375 9.5H4.4575C3.97164 9.5005 3.50583 9.69372 3.16228 10.0373C2.81872 10.3808 2.6255 10.8466 2.625 11.3325V12.6675C2.6255 13.1534 2.81872 13.6192 3.16228 13.9627C3.50583 14.3063 3.97164 14.4995 4.4575 14.5H4.5375C4.65476 14.501 4.76899 14.5374 4.86531 14.6043C4.96163 14.6711 5.03557 14.7655 5.0775 14.875C5.12164 14.9807 5.13333 15.0972 5.11107 15.2096C5.08881 15.3221 5.03361 15.4253 4.9525 15.5063L4.89562 15.5631C4.55278 15.9073 4.36028 16.3733 4.36028 16.8591C4.36028 17.3448 4.55278 17.8108 4.89562 18.155L5.83938 19.0981C6.18321 19.4416 6.64932 19.6345 7.13531 19.6345C7.6213 19.6345 8.08741 19.4416 8.43125 19.0981L8.48812 19.0413C8.57197 18.9594 8.67846 18.9046 8.79379 18.884C8.90913 18.8634 9.028 18.8779 9.135 18.9256C9.24156 18.9683 9.33294 19.0419 9.39741 19.1369C9.46189 19.2319 9.49652 19.3439 9.49687 19.4587V19.5394C9.49671 19.7805 9.54408 20.0193 9.63627 20.242C9.72846 20.4648 9.86366 20.6672 10.0342 20.8377C10.2046 21.0082 10.4071 21.1434 10.6298 21.2356C10.8526 21.3278 11.0914 21.3752 11.3325 21.375H12.6675C13.1534 21.3745 13.6192 21.1813 13.9627 20.8377C14.3063 20.4942 14.4995 20.0284 14.5 19.5425V19.4619C14.503 19.3464 14.5395 19.2343 14.605 19.1391C14.6704 19.0439 14.7621 18.9697 14.8688 18.9255C14.9755 18.8814 15.0928 18.8691 15.2064 18.8902C15.32 18.9113 15.425 18.9648 15.5087 19.0444L15.5656 19.1012C15.9095 19.4444 16.3755 19.6371 16.8612 19.6371C17.347 19.6371 17.813 19.4444 18.1569 19.1012L19.1012 18.1581C19.4441 17.814 19.6366 17.348 19.6366 16.8622C19.6366 16.3764 19.4441 15.9104 19.1012 15.5662L19.0444 15.5094C18.9625 15.4256 18.9076 15.3191 18.887 15.2037C18.8664 15.0884 18.8809 14.9695 18.9288 14.8625C18.9715 14.7558 19.0452 14.6643 19.1403 14.5998C19.2354 14.5352 19.3476 14.5004 19.4625 14.5H19.5425C20.0284 14.4995 20.4942 14.3063 20.8377 13.9627C21.1813 13.6192 21.3745 13.1534 21.375 12.6675V11.3325C21.3745 10.8466 21.1813 10.3808 20.8377 10.0373C20.4942 9.69372 20.0284 9.5005 19.5425 9.5ZM20.125 12.6675C20.1248 12.8219 20.0634 12.97 19.9542 13.0792C19.845 13.1884 19.6969 13.2498 19.5425 13.25H19.4625C19.0998 13.2531 18.746 13.3629 18.4453 13.5656C18.1446 13.7684 17.9102 14.0552 17.7714 14.3903C17.6326 14.7254 17.5955 15.094 17.6647 15.45C17.7339 15.806 17.9064 16.1338 18.1606 16.3925L18.2169 16.4494C18.326 16.5588 18.3873 16.707 18.3873 16.8616C18.3873 17.0161 18.326 17.1643 18.2169 17.2738L17.2725 18.2169C17.1633 18.3261 17.0151 18.3875 16.8606 18.3875C16.7061 18.3875 16.558 18.3261 16.4487 18.2169L16.3925 18.16C16.1337 17.906 15.8059 17.7338 15.45 17.6648C15.0941 17.5957 14.7257 17.6329 14.3907 17.7717C14.0557 17.9104 13.769 18.1447 13.5662 18.4452C13.3633 18.7458 13.2534 19.0993 13.25 19.4619V19.5425C13.2498 19.6969 13.1884 19.845 13.0792 19.9542C12.97 20.0634 12.8219 20.1248 12.6675 20.125H11.3325C11.1781 20.1248 11.03 20.0634 10.9208 19.9542C10.8116 19.845 10.7502 19.6969 10.75 19.5425V19.4619C10.7482 19.0986 10.6392 18.7439 10.4366 18.4423C10.2341 18.1407 9.94693 17.9057 9.61127 17.7667C9.2756 17.6277 8.90637 17.591 8.54989 17.6611C8.19342 17.7311 7.86557 17.9049 7.6075 18.1606L7.55062 18.2175C7.44122 18.3264 7.29313 18.3876 7.13875 18.3876C6.98437 18.3876 6.83628 18.3264 6.72688 18.2175L5.78312 17.2744C5.67401 17.1649 5.61273 17.0167 5.61273 16.8622C5.61273 16.7077 5.67401 16.5594 5.78312 16.45L5.84 16.3931C6.0945 16.1344 6.26718 15.8065 6.33649 15.4503C6.40581 15.0941 6.36869 14.7254 6.22977 14.3902C6.09084 14.0549 5.85627 13.768 5.55532 13.5653C5.25437 13.3625 4.90037 13.2528 4.5375 13.25H4.4575C4.30306 13.2498 4.155 13.1884 4.04579 13.0792C3.93659 12.97 3.87517 12.8219 3.875 12.6675V11.3325C3.87517 11.1781 3.93659 11.03 4.04579 10.9208C4.155 10.8116 4.30306 10.7502 4.4575 10.75H4.5375C4.90019 10.7469 5.25395 10.6371 5.55468 10.4344C5.8554 10.2316 6.08979 9.94476 6.22861 9.60967C6.36743 9.27458 6.40454 8.90604 6.33533 8.55C6.26611 8.19396 6.09363 7.86617 5.83938 7.6075L5.78312 7.55062C5.67405 7.4413 5.61279 7.29318 5.61279 7.13875C5.61279 6.98432 5.67405 6.83619 5.78312 6.72688L6.72688 5.7825C6.83611 5.67327 6.98427 5.6119 7.13875 5.6119C7.29323 5.6119 7.44139 5.67327 7.55062 5.7825L7.60687 5.83938C7.86559 6.0935 8.19336 6.2659 8.54935 6.33509C8.90534 6.40428 9.27382 6.36721 9.60889 6.22849C9.94396 6.08977 10.2308 5.85554 10.4337 5.55496C10.6366 5.25439 10.7466 4.90076 10.75 4.53812V4.4575C10.7502 4.30306 10.8116 4.155 10.9208 4.04579C11.03 3.93659 11.1781 3.87517 11.3325 3.875H12.6675C12.8219 3.87517 12.97 3.93659 13.0792 4.04579C13.1884 4.155 13.2498 4.30306 13.25 4.4575V4.53812C13.2532 4.90076 13.3631 5.25444 13.5659 5.55507C13.7687 5.8557 14.0555 6.08999 14.3906 6.22873C14.7257 6.36748 15.0942 6.40454 15.4501 6.3353C15.8061 6.26607 16.1339 6.09359 16.3925 5.83938L16.4494 5.7825C16.5586 5.67327 16.7068 5.6119 16.8612 5.6119C17.0157 5.6119 17.1639 5.67327 17.2731 5.7825L18.2169 6.72688C18.326 6.83619 18.3872 6.98432 18.3872 7.13875C18.3872 7.29318 18.326 7.4413 18.2169 7.55062L18.16 7.6075C17.9057 7.86621 17.7332 8.19406 17.664 8.55016C17.5948 8.90625 17.632 9.27484 17.7709 9.60996C17.9098 9.94507 18.1443 10.2319 18.4451 10.4346C18.7459 10.6373 19.0998 10.747 19.4625 10.75H19.5425C19.6969 10.7502 19.845 10.8116 19.9542 10.9208C20.0634 11.03 20.1248 11.1781 20.125 11.3325V12.6675Z" fill="white"/>
<path d="M12 7.625C11.1347 7.625 10.2888 7.88159 9.56938 8.36232C8.84992 8.84305 8.28916 9.52633 7.95803 10.3258C7.6269 11.1252 7.54026 12.0049 7.70907 12.8535C7.87788 13.7022 8.29456 14.4817 8.90641 15.0936C9.51826 15.7054 10.2978 16.1221 11.1465 16.2909C11.9951 16.4597 12.8748 16.3731 13.6742 16.042C14.4737 15.7108 15.157 15.1501 15.6377 14.4306C16.1184 13.7112 16.375 12.8653 16.375 12C16.3737 10.8401 15.9123 9.72805 15.0921 8.90787C14.2719 8.08768 13.1599 7.62632 12 7.625ZM12 15.125C11.3819 15.125 10.7777 14.9417 10.2638 14.5983C9.74994 14.255 9.3494 13.7669 9.11288 13.1959C8.87635 12.6249 8.81447 11.9965 8.93505 11.3903C9.05563 10.7842 9.35325 10.2273 9.79029 9.79029C10.2273 9.35325 10.7842 9.05562 11.3903 8.93505C11.9965 8.81447 12.6249 8.87635 13.1959 9.11288C13.7669 9.3494 14.255 9.74994 14.5983 10.2638C14.9417 10.7777 15.125 11.3819 15.125 12C15.124 12.8285 14.7945 13.6228 14.2086 14.2086C13.6228 14.7945 12.8285 15.124 12 15.125Z" fill="white"/>
</g>
<defs>
<clipPath id="clip0_35_939">
<rect width="20" height="20" fill="white" transform="translate(2 2)"/>
</clipPath>
</defs>
</svg>
