<svg width="30" height="30" viewBox="0 0 30 30" fill="none" xmlns="http://www.w3.org/2000/svg">
<rect width="30" height="30" rx="15" fill="#DF5852"/>
<path d="M16.3249 15.8688L14.7889 14.982C14.6873 14.9235 14.5721 14.8926 14.4549 14.8926C14.3377 14.8925 14.2225 14.9233 14.1209 14.9818C14.0195 15.0406 13.9352 15.1249 13.8766 15.2265C13.818 15.328 13.7871 15.4431 13.7869 15.5603V17.334C13.7867 17.4514 13.8175 17.5666 13.8761 17.6683C13.9347 17.7699 14.019 17.8543 14.1206 17.913C14.2222 17.9716 14.3375 18.0025 14.4548 18.0024C14.5721 18.0023 14.6873 17.9713 14.7889 17.9125L16.3251 17.0258C16.5309 16.9068 16.6591 16.6853 16.6591 16.4473C16.6591 16.2093 16.5309 15.9878 16.3249 15.8688ZM14.6774 16.9485V15.946L15.5456 16.4473L14.6774 16.9485Z" fill="white"/>
<path d="M20.3438 12.1054H9.65631C9.30211 12.1058 8.96252 12.2467 8.71206 12.4972C8.46159 12.7476 8.32071 13.0872 8.32031 13.4414V19.4532C8.32071 19.8074 8.46159 20.147 8.71206 20.3974C8.96252 20.6479 9.30211 20.7888 9.65631 20.7892H20.3438C20.698 20.7888 21.0376 20.6479 21.2881 20.3974C21.5385 20.147 21.6794 19.8074 21.6798 19.4532V13.4414C21.6794 13.0872 21.5385 12.7476 21.2881 12.4972C21.0376 12.2467 20.698 12.1058 20.3438 12.1054ZM20.7891 19.4532C20.7891 19.6987 20.5893 19.8984 20.3438 19.8984H9.65631C9.53827 19.8983 9.42509 19.8514 9.34162 19.7679C9.25815 19.6844 9.21119 19.5712 9.21106 19.4532V13.4414C9.21106 13.1959 9.41081 12.9962 9.65631 12.9962H20.3438C20.5893 12.9962 20.7891 13.1959 20.7891 13.4414V19.4532ZM10.3243 11.5487H19.6758C19.7939 11.5487 19.9072 11.5018 19.9907 11.4183C20.0742 11.3348 20.1211 11.2215 20.1211 11.1034C20.1211 10.9853 20.0742 10.8721 19.9907 10.7886C19.9072 10.7051 19.7939 10.6582 19.6758 10.6582H10.3243C10.2062 10.6582 10.093 10.7051 10.0095 10.7886C9.92597 10.8721 9.87906 10.9853 9.87906 11.1034C9.87906 11.2215 9.92597 11.3348 10.0095 11.4183C10.093 11.5018 10.2062 11.5487 10.3243 11.5487ZM11.8828 10.1014H18.1173C18.2354 10.1014 18.3487 10.0545 18.4322 9.97103C18.5157 9.88753 18.5626 9.77428 18.5626 9.65619C18.5626 9.5381 18.5157 9.42485 18.4322 9.34135C18.3487 9.25785 18.2354 9.21094 18.1173 9.21094H11.8828C11.7647 9.21094 11.6515 9.25785 11.568 9.34135C11.4845 9.42485 11.4376 9.5381 11.4376 9.65619C11.4376 9.77428 11.4845 9.88753 11.568 9.97103C11.6515 10.0545 11.7647 10.1014 11.8828 10.1014Z" fill="white"/>
</svg>
