<svg width="20" height="21" viewBox="0 0 20 21" fill="none" xmlns="http://www.w3.org/2000/svg">
<g clip-path="url(#clip0_323_1669)">
<path d="M19.3743 10.0753H11.4579C11.1129 10.0753 10.8329 9.79534 10.8329 9.45035C10.8329 9.10536 11.1129 8.82537 11.4579 8.82537H19.3743C19.7193 8.82537 19.9993 9.10536 19.9993 9.45035C19.9993 9.79534 19.7193 10.0753 19.3743 10.0753Z" fill="#485D6B"/>
<path d="M16.2495 13.2004C16.1674 13.2005 16.0861 13.1844 16.0103 13.153C15.9344 13.1215 15.8656 13.0753 15.8077 13.0171C15.5636 12.7728 15.5636 12.377 15.8077 12.1329L18.4911 9.44969L15.8077 6.76638C15.5636 6.52224 15.5636 6.12643 15.8077 5.8823C16.052 5.63801 16.4478 5.63801 16.692 5.8823L19.8169 9.0072C20.061 9.25134 20.061 9.64714 19.8169 9.89128L16.692 13.0162C16.6341 13.0747 16.5652 13.1211 16.4892 13.1527C16.4133 13.1843 16.3318 13.2005 16.2495 13.2004ZM6.66651 20.7001C6.48816 20.7001 6.31894 20.6751 6.14985 20.6226L1.13493 18.9518C0.452525 18.7135 0 18.0777 0 17.3669V2.36741C0 1.44826 0.747516 0.700745 1.66667 0.700745C1.84486 0.700745 2.01412 0.725744 2.18333 0.778242L7.1981 2.44905C7.88061 2.68736 8.33302 3.3232 8.33302 4.03392V19.0335C8.33302 19.9526 7.58566 20.7001 6.66651 20.7001ZM1.66667 1.95071C1.43749 1.95071 1.24996 2.1382 1.24996 2.36741V17.3669C1.24996 17.5444 1.3691 17.7093 1.53909 17.7685L6.53054 19.4318C6.5664 19.4434 6.61311 19.4502 6.66651 19.4502C6.89568 19.4502 7.08306 19.2626 7.08306 19.0335V4.03392C7.08306 3.85647 6.96392 3.69151 6.79393 3.63233L1.80248 1.96903C1.76662 1.95742 1.71991 1.95071 1.66667 1.95071Z" fill="#485D6B"/>
<path d="M12.7078 7.36713C12.3628 7.36713 12.0828 7.08714 12.0828 6.74215V2.99227C12.0828 2.41807 11.6155 1.95058 11.0413 1.95058H1.66661C1.32162 1.95058 1.04163 1.67059 1.04163 1.3256C1.04163 0.980614 1.32162 0.700623 1.66661 0.700623H11.0413C12.3055 0.700623 13.3328 1.72813 13.3328 2.99227V6.74215C13.3328 7.08714 13.0528 7.36713 12.7078 7.36713ZM11.0413 18.2001H7.70798C7.36299 18.2001 7.083 17.9201 7.083 17.5751C7.083 17.2301 7.36299 16.9501 7.70798 16.9501H11.0413C11.6155 16.9501 12.0828 16.4826 12.0828 15.9084V12.1585C12.0828 11.8136 12.3628 11.5336 12.7078 11.5336C13.0528 11.5336 13.3328 11.8136 13.3328 12.1585V15.9084C13.3328 17.1726 12.3055 18.2001 11.0413 18.2001Z" fill="#485D6B"/>
</g>
<defs>
<clipPath id="clip0_323_1669">
<rect width="20" height="20" fill="white" transform="translate(0 0.699997)"/>
</clipPath>
</defs>
</svg>
