<svg width="20" height="21" viewBox="0 0 20 21" fill="none" xmlns="http://www.w3.org/2000/svg">
<g clip-path="url(#clip0_323_2121)">
<path d="M13.9437 16.4594V14.45H14.3312C15.365 14.45 16.2062 13.6087 16.2062 12.575V3.2C16.2062 2.16625 15.365 1.325 14.3312 1.325H5.6687C4.63495 1.325 3.7937 2.16625 3.7937 3.2V12.575C3.7937 13.6087 4.63495 14.45 5.6687 14.45H6.08683C5.88308 15.6625 6.97995 17.3131 7.47433 17.9819L7.22433 19.3362C7.20764 19.4264 7.21099 19.5191 7.23415 19.6079C7.25732 19.6966 7.29972 19.7791 7.35835 19.8496C7.41698 19.9201 7.49041 19.9769 7.57342 20.0158C7.65644 20.0548 7.747 20.075 7.8387 20.075H12.8906C12.9797 20.0749 13.0678 20.0558 13.149 20.0188C13.2301 19.9819 13.3024 19.928 13.361 19.8608C13.4197 19.7936 13.4632 19.7147 13.4888 19.6293C13.5144 19.5439 13.5214 19.454 13.5093 19.3656L13.2943 17.7894L13.4612 17.6225C13.6146 17.4702 13.7362 17.2889 13.819 17.0893C13.9018 16.8896 13.9442 16.6755 13.9437 16.4594ZM12.6937 16.4594C12.6933 16.5639 12.6518 16.664 12.5781 16.7381L12.1912 17.1244C12.1231 17.1925 12.0717 17.2754 12.041 17.3667C12.0103 17.458 12.0012 17.5552 12.0143 17.6506L12.1743 18.825H8.58995L8.75308 17.9375C8.76935 17.85 8.76679 17.76 8.74556 17.6736C8.72432 17.5872 8.68491 17.5063 8.62995 17.4362C8.00308 16.64 7.15495 15.1931 7.32495 14.6194C7.44245 14.2225 7.57683 14.1137 7.5812 14.0881C7.58308 14.0844 7.5862 14.0819 7.58745 14.0781C7.68019 14.1033 7.77749 14.1069 7.87182 14.0885C7.96615 14.0701 8.05497 14.0302 8.13141 13.9719C8.20785 13.9137 8.26986 13.8386 8.31264 13.7526C8.35541 13.6665 8.3778 13.5717 8.37808 13.4756V10.0637C8.38212 9.96261 8.42514 9.86695 8.49813 9.79682C8.57112 9.72669 8.66842 9.68752 8.76964 9.68752C8.87086 9.68752 8.96816 9.72669 9.04115 9.79682C9.11414 9.86695 9.15716 9.96261 9.1612 10.0637V10.97C9.1612 11.6019 9.50933 12.1762 10.07 12.4687L12.17 13.5631C12.4931 13.7319 12.6937 14.0625 12.6937 14.4256V16.4594ZM12.7475 12.455L10.6481 11.3606C10.5765 11.3236 10.5164 11.2675 10.4745 11.1986C10.4326 11.1297 10.4105 11.0506 10.4106 10.97V10.0637C10.4099 9.62866 10.2368 9.21159 9.92914 8.90394C9.62148 8.59629 9.20441 8.42316 8.76933 8.4225C8.33424 8.42316 7.91717 8.59629 7.60952 8.90394C7.30187 9.21159 7.12874 9.62866 7.12808 10.0637V12.9475C6.98745 13.0105 6.85788 13.0958 6.74433 13.2H5.6687C5.32433 13.2 5.0437 12.92 5.0437 12.575V3.2C5.0437 2.85562 5.32433 2.575 5.6687 2.575H14.3312C14.6756 2.575 14.9562 2.85562 14.9562 3.2V12.575C14.9562 12.92 14.6756 13.2 14.3312 13.2H13.5712C13.3642 12.8858 13.0808 12.6295 12.7475 12.455Z" fill="#485D6B"/>
<path d="M12.4275 3.825H7.57251C7.40675 3.825 7.24778 3.89085 7.13057 4.00806C7.01336 4.12527 6.94751 4.28424 6.94751 4.45C6.94751 4.61576 7.01336 4.77473 7.13057 4.89194C7.24778 5.00915 7.40675 5.075 7.57251 5.075H12.4275C12.5933 5.075 12.7522 5.00915 12.8695 4.89194C12.9867 4.77473 13.0525 4.61576 13.0525 4.45C13.0525 4.28424 12.9867 4.12527 12.8695 4.00806C12.7522 3.89085 12.5933 3.825 12.4275 3.825ZM12.4275 6.12375H7.57251C7.40675 6.12375 7.24778 6.18959 7.13057 6.30681C7.01336 6.42402 6.94751 6.58299 6.94751 6.74875C6.94751 6.91451 7.01336 7.07348 7.13057 7.19069C7.24778 7.3079 7.40675 7.37375 7.57251 7.37375H12.4275C12.5933 7.37375 12.7522 7.3079 12.8695 7.19069C12.9867 7.07348 13.0525 6.91451 13.0525 6.74875C13.0525 6.58299 12.9867 6.42402 12.8695 6.30681C12.7522 6.18959 12.5933 6.12375 12.4275 6.12375Z" fill="#485D6B"/>
</g>
<defs>
<clipPath id="clip0_323_2121">
<rect width="20" height="20" fill="white" transform="translate(0 0.699997)"/>
</clipPath>
</defs>
</svg>
