<svg width="18" height="13" viewBox="0 0 18 13" fill="none" xmlns="http://www.w3.org/2000/svg">
<path d="M17.2502 7.06424H0.750244C0.336244 7.06424 0.000244141 6.73686 0.000244141 6.33347C0.000244141 5.93008 0.336244 5.60269 0.750244 5.60269H17.2502C17.6642 5.60269 18.0002 5.93008 18.0002 6.33347C18.0002 6.73686 17.6642 7.06424 17.2502 7.06424ZM17.2502 1.46156H0.750244C0.336244 1.46156 0.000244141 1.13417 0.000244141 0.730778C0.000244141 0.327388 0.336244 0 0.750244 0H17.2502C17.6642 0 18.0002 0.327388 18.0002 0.730778C18.0002 1.13417 17.6642 1.46156 17.2502 1.46156ZM17.2502 12.6668H0.750244C0.336244 12.6668 0.000244141 12.3394 0.000244141 11.936C0.000244141 11.5326 0.336244 11.2052 0.750244 11.2052H17.2502C17.6642 11.2052 18.0002 11.5326 18.0002 11.936C18.0002 12.3394 17.6642 12.6668 17.2502 12.6668Z" fill="#7715CD"/>
</svg>
