<svg width="24" height="24" viewBox="0 0 24 24" fill="none" xmlns="http://www.w3.org/2000/svg">
<g clip-path="url(#clip0_35_926)">
<path d="M12 9.89453C14.0613 9.89453 15.7383 8.21755 15.7383 6.15625C15.7383 4.09495 14.0613 2.41797 12 2.41797C9.9387 2.41797 8.26172 4.09495 8.26172 6.15625C8.26172 8.21755 9.9387 9.89453 12 9.89453ZM12 3.70703C13.3505 3.70703 14.4492 4.80574 14.4492 6.15625C14.4492 7.50676 13.3505 8.60547 12 8.60547C10.6495 8.60547 9.55078 7.50676 9.55078 6.15625C9.55078 4.80574 10.6495 3.70703 12 3.70703ZM19.5625 9.89453C20.8656 9.89453 21.9258 8.83436 21.9258 7.53125C21.9258 6.22814 20.8656 5.16797 19.5625 5.16797C18.2594 5.16797 17.1992 6.22814 17.1992 7.53125C17.1992 8.83436 18.2594 9.89453 19.5625 9.89453ZM19.5625 6.45703C20.1548 6.45703 20.6367 6.93893 20.6367 7.53125C20.6367 8.12357 20.1548 8.60547 19.5625 8.60547C18.9702 8.60547 18.4883 8.12357 18.4883 7.53125C18.4883 6.93893 18.9702 6.45703 19.5625 6.45703ZM20.0824 11.3555H19.0855C17.9108 11.3555 16.8968 12.0495 16.4347 13.0464C15.4833 12.0078 14.1168 11.3555 12.6007 11.3555H11.3994C9.88327 11.3555 8.51674 12.0078 7.56537 13.0464C7.10324 12.0495 6.08918 11.3555 4.91445 11.3555H3.91758C2.30883 11.3555 1 12.6564 1 14.2554V18.948C1 19.6423 1.56693 20.207 2.2638 20.207H6.20519C6.27128 20.9762 6.91804 21.582 7.70407 21.582H16.296C17.082 21.582 17.7287 20.9762 17.7949 20.207H21.6912C22.4129 20.207 23 19.6222 23 18.9034V14.2554C23 12.6564 21.6912 11.3555 20.0824 11.3555ZM2.28906 14.2554C2.28906 13.3672 3.01962 12.6445 3.91758 12.6445H4.91445C5.81241 12.6445 6.54297 13.3672 6.54297 14.2554V14.6968C6.10954 15.8253 6.19922 16.5016 6.19922 18.918H2.28906V14.2554ZM16.5117 20.0772C16.5117 20.1344 16.4889 20.1893 16.4485 20.2297C16.408 20.2702 16.3532 20.2929 16.296 20.293H7.70403C7.64683 20.2929 7.59199 20.2701 7.55155 20.2297C7.5111 20.1893 7.48835 20.1344 7.48828 20.0772V16.5556C7.48828 14.399 9.24278 12.6445 11.3993 12.6445H12.6006C14.7572 12.6445 16.5117 14.399 16.5117 16.5556V20.0772ZM21.7109 18.9034C21.7109 18.9256 21.9512 18.918 17.8008 18.918C17.8008 16.4837 17.8898 15.8234 17.457 14.6968V14.2554C17.457 13.3672 18.1876 12.6445 19.0855 12.6445H20.0824C20.9804 12.6445 21.7109 13.3672 21.7109 14.2554V18.9034ZM4.4375 9.89453C5.74061 9.89453 6.80078 8.83436 6.80078 7.53125C6.80078 6.22814 5.74061 5.16797 4.4375 5.16797C3.13439 5.16797 2.07422 6.22814 2.07422 7.53125C2.07422 8.83436 3.13439 9.89453 4.4375 9.89453ZM4.4375 6.45703C5.02982 6.45703 5.51172 6.93893 5.51172 7.53125C5.51172 8.12357 5.02982 8.60547 4.4375 8.60547C3.84518 8.60547 3.36328 8.12357 3.36328 7.53125C3.36328 6.93893 3.84518 6.45703 4.4375 6.45703Z" fill="white"/>
</g>
<defs>
<clipPath id="clip0_35_926">
<rect width="22" height="22" fill="white" transform="translate(1 1)"/>
</clipPath>
</defs>
</svg>
