<svg width="24" height="24" viewBox="0 0 24 24" fill="none" xmlns="http://www.w3.org/2000/svg">
<g clip-path="url(#clip0_35_932)">
<path d="M21.4064 9.12711L18.9479 7.07529V4.16437C18.9479 3.91304 18.7286 3.72111 18.4727 3.72111H14.8945L13.4597 2.52384C12.6143 1.82467 11.3896 1.82467 10.5442 2.52841L9.10926 3.72111H5.48546C5.23413 3.72111 5.01021 3.90847 5.01021 4.16437V7.12099L2.59739 9.12711C2.49686 9.21393 2.43745 9.34645 2.44202 9.47898H2.45116V19.7106C2.45116 20.9719 3.46564 22.0001 4.72232 22.0001H19.2769C20.5382 22.0001 21.5481 20.9673 21.5481 19.7106V9.47898H21.5572C21.5664 9.34188 21.5115 9.21393 21.4064 9.12711ZM18.9479 8.26343L20.3874 9.4607L18.9479 10.53V8.26343ZM11.1291 3.22758C11.6363 2.80716 12.3721 2.81173 12.8793 3.23215L13.4597 3.72111H10.5396L11.1291 3.22758ZM5.92416 4.63506H18.034V11.2109L12.829 15.086C12.3355 15.4471 11.6683 15.4471 11.1794 15.086L5.92416 11.1743V4.63506ZM5.01021 8.30455V10.4935L3.61644 9.45613L5.01021 8.30455ZM20.6387 19.706C20.6433 20.4646 20.0355 21.0815 19.2815 21.0861H4.72232C3.96831 21.0815 3.36054 20.4646 3.3651 19.7106V10.3884L10.6401 15.8218C11.449 16.4204 12.5548 16.4204 13.3637 15.8218L20.6387 10.3884V19.706Z" fill="white"/>
<path d="M11.6363 8.29083H9.16864C8.91731 8.29083 8.71167 8.49647 8.71167 8.74781C8.71167 8.99914 8.91731 9.20478 9.16864 9.20478H11.6363C11.8876 9.20478 12.0933 8.99914 12.0933 8.74781C12.0933 8.49647 11.8876 8.29083 11.6363 8.29083ZM14.8351 10.5757H9.16864C8.91731 10.5757 8.71167 10.7813 8.71167 11.0327C8.71167 11.284 8.91731 11.4896 9.16864 11.4896H14.8351C15.0865 11.4896 15.2921 11.284 15.2921 11.0327C15.2921 10.7813 15.0865 10.5757 14.8351 10.5757Z" fill="white"/>
</g>
<defs>
<clipPath id="clip0_35_932">
<rect width="20" height="20" fill="white" transform="translate(2 2)"/>
</clipPath>
</defs>
</svg>
