<svg width="30" height="30" viewBox="0 0 30 30" fill="none" xmlns="http://www.w3.org/2000/svg">
<g clip-path="url(#clip0_85_5403)">
<path d="M4.43506 4.4349L5.88156 7.63922L7.5458 7.54564L15.0002 4.45312L16.758 2.03613L15.0002 0C10.8742 0 7.13893 1.73098 4.43506 4.4349Z" fill="#FF7B4A"/>
<path d="M4.4349 4.43494C1.73098 7.13869 0 10.874 0 15L2.31082 16.7578L4.45312 15L7.54559 7.54562L4.4349 4.43494Z" fill="#E63950"/>
<path d="M4.45312 15H0C0 19.1259 1.73098 22.8612 4.4349 25.5651L7.63916 24.1187L7.54559 22.4544L4.45312 15Z" fill="#7ED8F6"/>
<path d="M7.5458 22.4545L4.43506 25.5652C7.13898 28.2691 10.8743 30.0001 15.0002 30.0001L16.758 27.7442L15.0002 25.5469L7.5458 22.4545Z" fill="#6AA9FF"/>
<path d="M22.4544 22.4545L15 25.5469V30.0001C19.126 30.0001 22.8612 28.2691 25.5651 25.5652L24.3109 22.5531L22.4544 22.4545Z" fill="#97DE3D"/>
<path d="M25.5471 15L22.4546 22.4544L25.5653 25.5652C28.2692 22.8612 30.0002 19.1259 30.0002 15L27.7993 13.2422L25.5471 15Z" fill="#59C36A"/>
<path d="M25.5653 4.43494L22.9928 5.24968L22.4546 7.54568L25.5471 15H30.0002C30.0002 10.874 28.2693 7.13869 25.5653 4.43494Z" fill="#FED843"/>
<path d="M15 0V4.45312L22.4544 7.54559L25.5652 4.43484C22.8612 1.73098 19.126 0 15 0Z" fill="#FF9F00"/>
<path d="M14.9998 10.6055L16.7576 7.5293L14.9998 4.45312C12.0919 4.45312 9.45516 5.6359 7.54541 7.54559L8.87496 10.6329L11.8924 11.8926C12.6877 11.0974 13.7863 10.6055 14.9998 10.6055Z" fill="#E63950"/>
<path d="M11.8926 11.8925L7.54559 7.54553C5.6359 9.45528 4.45312 12.092 4.45312 14.9999L7.80393 16.7578L10.6055 14.9999C10.6055 13.7864 11.0974 12.6879 11.8926 11.8925Z" fill="#AE2538"/>
<path d="M11.8926 18.1074C11.0974 17.3122 10.6055 16.2134 10.6055 15H4.45312C4.45312 17.9079 5.6359 20.5447 7.54559 22.4544L10.6879 21.07L11.8926 18.1074Z" fill="#6AA9FF"/>
<path d="M11.8924 18.1074L7.54541 22.4544C9.45516 24.3641 12.0919 25.5469 14.9998 25.5469L16.7576 22.3609L14.9998 19.3946C13.7863 19.3946 12.6877 18.9027 11.8924 18.1074Z" fill="#4895FF"/>
<path d="M15 19.3946V25.5469C17.9079 25.5469 20.5447 24.3641 22.4544 22.4544L21.1799 19.4221L18.1074 18.1074C17.312 18.9027 16.2135 19.3946 15 19.3946Z" fill="#59C36A"/>
<path d="M18.1074 18.1074L22.4544 22.4544C24.3641 20.5447 25.5469 17.9079 25.5469 15L22.4158 13.2422L19.3946 15C19.3946 16.2134 18.9027 17.3122 18.1074 18.1074Z" fill="#00A66C"/>
<path d="M19.3946 14.9999H25.5469C25.5469 12.092 24.3641 9.45528 22.4544 7.54553L19.1748 9.06733L18.1074 11.8925C18.9027 12.6879 19.3946 13.7864 19.3946 14.9999Z" fill="#FF9F00"/>
<path d="M18.1074 11.8926L22.4544 7.54559C20.5447 5.6359 17.9079 4.45312 15 4.45312V10.6055C16.2135 10.6055 17.312 11.0974 18.1074 11.8926Z" fill="#FF641A"/>
<path d="M15 20.2734C17.9124 20.2734 20.2734 17.9124 20.2734 15C20.2734 12.0876 17.9124 9.72656 15 9.72656C12.0876 9.72656 9.72656 12.0876 9.72656 15C9.72656 17.9124 12.0876 20.2734 15 20.2734Z" fill="#EDF5FF"/>
<path d="M20.2734 15C20.2734 12.0921 17.9079 9.72656 15 9.72656V20.2734C17.9079 20.2734 20.2734 17.9079 20.2734 15Z" fill="#D5E8FE"/>
</g>
<defs>
<clipPath id="clip0_85_5403">
<rect width="30" height="30" fill="white"/>
</clipPath>
</defs>
</svg>
