<svg width="24" height="24" viewBox="0 0 24 24" fill="none" xmlns="http://www.w3.org/2000/svg">
<path d="M6.58607 18.0005C6.47016 18.0005 6.35685 17.9662 6.26047 17.9018C6.16409 17.8374 6.08897 17.7459 6.04461 17.6388C6.00025 17.5317 5.98865 17.4139 6.01127 17.3002C6.03388 17.1865 6.08971 17.0821 6.17168 17.0002L17.0002 6.17165C17.1101 6.06174 17.2592 6 17.4146 6C17.57 6 17.7191 6.06174 17.829 6.17165C17.9389 6.28155 18.0006 6.43061 18.0006 6.58604C18.0006 6.74146 17.9389 6.89052 17.829 7.00043L7.00046 17.8289C6.94609 17.8834 6.88149 17.9266 6.81038 17.9561C6.73927 17.9855 6.66304 18.0006 6.58607 18.0005Z" fill="#485D6B"/>
<path d="M17.4145 18.0005C17.3376 18.0006 17.2613 17.9855 17.1902 17.9561C17.1191 17.9266 17.0545 17.8834 17.0002 17.8289L6.17165 7.00043C6.06174 6.89052 6 6.74146 6 6.58604C6 6.43061 6.06174 6.28155 6.17165 6.17165C6.28155 6.06174 6.43061 6 6.58604 6C6.74146 6 6.89052 6.06174 7.00043 6.17165L17.8289 17.0002C17.9109 17.0821 17.9667 17.1865 17.9893 17.3002C18.012 17.4139 18.0004 17.5317 17.956 17.6388C17.9116 17.7459 17.8365 17.8374 17.7401 17.9018C17.6438 17.9662 17.5305 18.0005 17.4145 18.0005Z" fill="#485D6B"/>
</svg>
