<svg width="24" height="24" viewBox="0 0 24 24" fill="none" xmlns="http://www.w3.org/2000/svg">
<g clip-path="url(#clip0_1197_2050)">
<path d="M12.6445 11.4203V7.59914C13.3947 7.8652 13.9336 8.58162 13.9336 9.42188H15.2227C15.2227 7.86559 14.1137 6.56351 12.6445 6.26406V5.125H11.3555V6.26406C9.88628 6.56346 8.77734 7.86555 8.77734 9.42188C8.77734 10.9782 9.88628 12.2802 11.3555 12.5797V16.4009C10.6053 16.1348 10.0664 15.4184 10.0664 14.5781H8.77734C8.77734 16.1344 9.88628 17.4365 11.3555 17.7359V18.875H12.6445V17.7359C14.1137 17.4365 15.2227 16.1345 15.2227 14.5781C15.2227 13.0218 14.1137 11.7198 12.6445 11.4203ZM11.3555 11.2446C10.6053 10.9785 10.0664 10.2621 10.0664 9.42188C10.0664 8.58162 10.6053 7.8652 11.3555 7.59914V11.2446ZM12.6445 16.4009V12.7554C13.3947 13.0215 13.9336 13.7379 13.9336 14.5781C13.9336 15.4184 13.3947 16.1348 12.6445 16.4009Z" fill="#485D6B"/>
<path d="M12 1C5.92486 1 1 5.92486 1 12C1 18.0751 5.92486 23 12 23C18.0751 23 23 18.0751 23 12C23 5.92486 18.0751 1 12 1ZM12 21.7109C6.63681 21.7109 2.28906 17.3632 2.28906 12C2.28906 6.63681 6.63681 2.28906 12 2.28906C17.3632 2.28906 21.7109 6.63681 21.7109 12C21.7109 17.3632 17.3632 21.7109 12 21.7109Z" fill="#485D6B"/>
</g>
<defs>
<clipPath id="clip0_1197_2050">
<rect width="22" height="22" fill="white" transform="translate(1 1)"/>
</clipPath>
</defs>
</svg>
