<svg width="19" height="19" viewBox="0 0 19 19" fill="none" xmlns="http://www.w3.org/2000/svg">
<g clip-path="url(#clip0_85_5444)">
<path d="M9.4969 18.9991C4.25038 18.9976 -0.00152138 14.7433 4.08365e-07 9.49675C0.000738858 6.97892 1.001 4.56436 2.78101 2.7836C6.49134 -0.926729 12.5069 -0.926729 16.2172 2.7836C19.9276 6.49394 19.9276 12.5095 16.2172 16.2198C15.3366 17.1046 14.2891 17.8058 13.1355 18.2828C11.982 18.7599 10.7452 19.0034 9.4969 18.9991ZM9.4969 1.11335C4.86537 1.11332 1.11072 4.86786 1.11068 9.49939C1.11067 10.6007 1.3276 11.6913 1.74909 12.7088C2.17057 13.7264 2.78836 14.6509 3.56717 15.4296C6.8422 18.7047 12.152 18.7047 15.4271 15.4296C18.7021 12.1546 18.7021 6.84476 15.4271 3.56974C14.6501 2.78853 13.7259 2.16919 12.708 1.74755C11.6901 1.32591 10.5987 1.11035 9.4969 1.11335Z" fill="#757575"/>
<path d="M6.33533 13.2182C6.02786 13.2183 5.77847 12.9691 5.77832 12.6617C5.77829 12.5885 5.79268 12.516 5.82069 12.4484C5.84869 12.3808 5.88975 12.3193 5.94152 12.2676L12.2651 5.94403C12.4787 5.72285 12.8312 5.71672 13.0523 5.93033C13.2735 6.14394 13.2796 6.4964 13.066 6.71757C13.0615 6.72221 13.057 6.72678 13.0523 6.73127L6.72877 13.0548C6.62447 13.1593 6.48294 13.218 6.33533 13.2182Z" fill="#757575"/>
<path d="M12.6588 13.2182C12.5857 13.2181 12.5133 13.2037 12.4457 13.1757C12.3781 13.1477 12.3167 13.1066 12.265 13.0548L5.94146 6.73127C5.72028 6.51766 5.71416 6.1652 5.92777 5.94403C6.14137 5.72285 6.49383 5.71672 6.71501 5.93033C6.71965 5.93482 6.72422 5.93939 6.72871 5.94403L13.0523 12.2676C13.2698 12.485 13.2699 12.8374 13.0525 13.055C13.0008 13.1067 12.9395 13.1477 12.8719 13.1757C12.8044 13.2037 12.732 13.2181 12.6588 13.2182Z" fill="#757575"/>
</g>
<defs>
<clipPath id="clip0_85_5444">
<rect width="19" height="19" fill="white"/>
</clipPath>
</defs>
</svg>
